<?xml version="1.0" standalone="no"?>
<!DOCTYPE svg PUBLIC "-//W3C//DTD SVG 1.1//EN" "http://www.w3.org/Graphics/SVG/1.1/DTD/svg11.dtd">
<svg xmlns="http://www.w3.org/2000/svg">
<defs >
<font id="BalooTammudu2" horiz-adv-x="702" ><font-face
    font-family="Baloo Tammudu 2 Medium"
    units-per-em="1000"
    panose-1="3 8 6 2 4 3 2 2 2 0"
    ascent="1177"
    descent="-1041"
    alphabetic="0" />
<glyph unicode=" " glyph-name="space" horiz-adv-x="200" />
<glyph unicode="!" glyph-name="exclam" horiz-adv-x="263" d="M184 575Q184 547 183 501T181 401T177 295T170 199Q163 194 152 191T129 188Q110 188 99 194T85 218Q82 245 80 295T76 401T73 514T72 612Q99 628 131 628Q156 628 170 615T184 575ZM62 54Q62 83
80 101T129 120Q161 120 178 102T196 54Q196 25 179 6T129 -13Q98 -13 80 6T62 54Z" />
<glyph unicode="&quot;" glyph-name="quotedbl" horiz-adv-x="308" d="M117 407Q102 400 78 400Q61 400 50 407T37 433L29 614Q40 620 52 624T80 628Q127 628 127 583Q127 570 126 548T124 500T120 450T117 407ZM268 407Q253 400 229 400Q211 400 201 407T189
433L180 614Q191 620 203 624T231 628Q278 628 278 582Q278 569 277 547T275 500T272 450T268 407Z" />
<glyph unicode="#" glyph-name="numbersign" horiz-adv-x="680" d="M513 385L481 233H606Q610 225 613 216T616 194Q616 153 575 153H464L431 -2Q416 -5 400 -5Q378 -5 365 4T352 37Q352 51 355 69T362 101L373 153H241L208 -2Q193 -5 177 -5Q155 -5 142 4T129
37Q129 50 133 69T140 101L151 153H49Q45 160 42 170T39 191Q39 233 79 233H168L200 385H78Q74 393 71 402T68 423Q68 445 79 455T108 465H217L249 612Q257 613 265 613T280 614Q302 614 315 605T328 572Q328 558 324 541T317 509L307 465H439L471 612Q479 613
487 613T503 614Q524 614 537 605T551 572Q551 558 547 541T540 509L530 465H636Q639 458 642 448T645 426Q645 385 605 385H513ZM258 233H390L422 385H290L258 233Z" />
<glyph unicode="$" glyph-name="dollar" horiz-adv-x="534" d="M256 74Q319 74 349 100T379 167Q379 203 356 225T283 262L208 285Q173 296 145 310T96 344T66 390T55 452Q55 519 98 562T217 617V696Q223 698 234 700T259 702Q311 702 311 659V620Q378 615 420
592T463 537Q463 520 455 508T434 487Q409 506 369 519T279 533Q224 533 194 511T164 452Q164 422 185 404T254 371L312 354Q396 329 442 286T489 167Q489 96 443 49T311 -10V-88Q305 -90 294 -92T269 -94Q217 -94 217 -51V-12Q142 -5 97 21T51 81Q51 101 63 115T91
136Q115 114 156 94T256 74Z" />
<glyph unicode="%" glyph-name="percent" horiz-adv-x="779" d="M339 470Q339 436 328 409T297 362T251 333T193 323Q161 323 135 333T88 362T57 408T46 470Q46 504 57 531T88 577T134 606T193 616Q224 616 250 606T296 577T327 531T339 470ZM131 470Q131 433
148 414T193 394Q220 394 237 413T255 470Q255 506 238 525T193 545Q166 545 149 526T131 470ZM551 616Q577 612 594 603T611 576Q611 556 592 529L231 -7Q205 -5 188 6T170 33Q170 44 175 54T189 79L551 616ZM733 139Q733 105 722 78T692 31T645 2T587 -8Q556
-8 529 2T483 31T452 77T440 139Q440 173 451 200T482 246T529 275T587 285Q618 285 645 275T691 246T722 200T733 139ZM525 139Q525 102 542 83T587 63Q614 63 631 82T648 139Q648 175 631 194T587 214Q559 214 542 195T525 139Z" />
<glyph unicode="&amp;" glyph-name="ampersand" horiz-adv-x="647" d="M565 -14Q551 -14 540 -7T515 13L473 56Q437 21 388 3T279 -15Q225 -15 182 -1T109 40T63 104T46 186Q46 257 83 302T176 369Q150 399 141 425T131 481Q131 543 174 582T297 622Q353 622 380
605T407 561Q407 548 401 537T385 518Q370 526 351 531T310 536Q275 536 255 520T234 474Q234 447 248 426T291 376L463 200Q474 232 480 272T487 360Q511 371 532 371Q560 371 571 355T583 312Q583 266 571 218T535 128L620 41Q617 16 603 1T565 -14ZM282 70Q311
70 345 80T411 120L234 303Q200 292 175 264T149 189Q149 135 184 103T282 70Z" />
<glyph unicode="&apos;" glyph-name="quotesingle" horiz-adv-x="161" d="M121 408Q113 405 102 403T80 400Q61 400 50 408T37 434L29 613Q40 619 52 623T82 628Q132 628 132 581Q132 568 131 546T129 500T125 451T121 408Z" />
<glyph unicode="(" glyph-name="parenleft" horiz-adv-x="268" d="M209 -122Q186 -122 169 -107T137 -67Q97 -5 74 78T51 272Q51 381 77 465T137 606Q152 631 169 645T209 660Q227 660 240 651T260 627Q207 556 179 469T151 272Q151 162 177 77T260 -88Q253 -101
240 -111T209 -122Z" />
<glyph unicode=")" glyph-name="parenright" horiz-adv-x="268" d="M59 -122Q41 -122 28 -112T8 -88Q64 -9 90 76T117 272Q117 381 89 468T8 627Q15 641 28 650T59 660Q82 660 99 646T131 606Q165 550 191 466T217 272Q217 162 194 79T131 -67Q116 -91 99 -106T59 -122Z" />
<glyph unicode="*" glyph-name="asterisk" horiz-adv-x="313" d="M57 577Q65 577 81 570L123 550L122 637Q127 641 137 645T159 649Q174 649 184 642T195 617Q195 611 194 590T190 548L263 586Q274 581 283 570T292 544Q292 529 284 523T261 509L213 487L271 414Q268
399 256 389T229 378Q214 378 206 387T187 410L159 450L111 380Q106 378 103 378T95 378Q72 378 61 388T49 413Q49 428 64 445L102 488L24 513Q20 525 20 539Q20 556 30 566T57 577Z" />
<glyph unicode="+" glyph-name="plus" horiz-adv-x="547" d="M323 339H492Q496 331 499 321T502 298Q502 275 491 265T460 254H323V66Q315 64 304 62T279 59Q253 59 240 69T227 108V254H55Q51 262 48 272T45 295Q45 317 56 328T87 339H227V522Q236 525 248 527T274
530Q298 530 310 520T323 481V339Z" />
<glyph unicode="," glyph-name="comma" horiz-adv-x="172" d="M90 -88Q79 -104 68 -111T39 -119Q11 -119 -8 -100Q0 -78 8 -51T25 5T40 61T51 111Q62 116 75 120T103 124Q124 124 138 114T152 79Q152 61 146 37T130 -10T110 -55T90 -88Z" />
<glyph unicode="-" glyph-name="hyphen" horiz-adv-x="379" d="M58 216Q53 224 50 234T47 258Q47 280 58 291T90 302H322Q325 294 328 284T332 261Q332 239 321 228T290 216H58Z" />
<glyph unicode="." glyph-name="period" horiz-adv-x="168" d="M18 53Q18 82 35 101T84 120Q116 120 133 101T150 53Q150 24 133 5T84 -14Q53 -14 36 5T18 53Z" />
<glyph unicode="/" glyph-name="slash" horiz-adv-x="315" d="M103 -105Q86 -108 70 -108Q18 -108 18 -61Q18 -45 23 -27T32 4L213 705Q222 707 230 707T246 707Q270 707 284 697T299 661Q299 645 295 629T286 596L103 -105Z" />
<glyph unicode="0" glyph-name="zero" horiz-adv-x="589" d="M434 304Q434 364 423 407T394 479T350 520T294 534Q264 534 239 521T195 479T166 407T155 304Q155 191 191 132T294 73Q361 73 397 132T434 304ZM294 -14Q240 -14 195 5T117 65T67 164T49 304Q49 388
68 448T122 546T200 603T294 621Q344 621 389 603T467 545T521 446T541 304Q541 224 523 165T473 65T395 6T294 -14Z" />
<glyph unicode="1" glyph-name="one" horiz-adv-x="367" d="M274 0Q266 -3 253 -5T225 -8Q196 -8 182 3T168 41V507L48 455Q34 461 24 473T14 505Q14 525 25 537T60 560L192 615H216Q242 615 258 600T274 558V0Z" />
<glyph unicode="2" glyph-name="two" horiz-adv-x="512" d="M58 538Q58 555 71 570T107 596T162 614T231 621Q334 621 390 572T446 444Q446 389 416 337T315 222L161 84H442Q447 78 450 67T454 43Q454 22 444 11T416 0H65Q37 19 37 55Q37 75 45 91T67 119L235
277Q264 304 284 326T316 367T333 403T338 440Q338 482 309 508T222 534Q178 534 145 520T89 489Q76 496 67 508T58 538Z" />
<glyph unicode="3" glyph-name="three" horiz-adv-x="509" d="M221 622Q322 622 381 579T440 453Q440 424 431 402T408 363T378 335T346 320Q366 313 386 301T421 270T447 226T457 169Q457 125 440 91T392 34T318 0T224 -12Q180 -12 144 -5T83 13T44 40T30 73Q30
91 39 103T62 124Q86 106 122 90T218 74Q280 74 316 99T352 175Q352 220 320 246T221 273H135Q130 280 127 291T123 316Q123 330 126 341T135 359H216Q280 359 307 382T335 447Q335 489 303 512T213 535Q166 535 132 522T74 493Q62 500 53 512T44 541Q44 558 57
572T94 598T150 615T221 622Z" />
<glyph unicode="4" glyph-name="four" horiz-adv-x="563" d="M312 607Q323 610 338 612T366 614Q380 614 393 612T416 602T433 583T439 553V226H533Q537 219 540 208T544 184Q544 162 534 151T505 140H439V-1Q432 -3 420 -5T393 -8Q365 -8 351 1T336 37V140H62Q48
147 38 162T28 200Q28 211 30 222T38 243L312 607ZM341 506H339L144 226H340L341 506Z" />
<glyph unicode="5" glyph-name="five" horiz-adv-x="534" d="M453 608Q457 602 460 591T464 567Q464 521 425 521H187L173 365Q190 373 218 380T279 387Q325 387 364 374T430 335T473 273T489 191Q489 148 474 111T430 46T357 2T256 -14Q212 -14 176 -7T115 13T75
42T61 76Q61 95 72 109T98 129Q122 109 160 91T252 72Q315 72 348 105T382 190Q382 243 349 272T258 302Q225 302 199 293T149 270Q116 272 96 289T76 337Q76 342 76 350T78 369L93 549Q95 576 110 592T152 608H453V608Z" />
<glyph unicode="6" glyph-name="six" horiz-adv-x="552" d="M463 554Q463 539 456 526T437 507Q414 518 386 526T328 534Q255 534 207 485T154 333Q174 351 213 370T306 390Q351 390 388 377T451 339T493 277T508 190Q508 145 493 108T450 43T380 1T288 -14Q235
-14 192 4T116 58T67 151T49 286Q49 377 71 441T130 545T217 603T320 621Q350 621 376 617T421 604T452 583T463 554ZM288 72Q339 72 370 103T402 191Q402 248 370 276T289 305Q244 305 210 287T156 242V237Q156 160 191 116T288 72Z" />
<glyph unicode="7" glyph-name="seven" horiz-adv-x="465" d="M419 608Q431 600 439 587T447 557Q447 532 436 509L197 -5Q189 -6 182 -6T166 -6Q140 -6 122 5T104 41Q104 54 110 70T127 106L331 521H34Q30 527 27 538T23 563Q23 585 33 596T62 608H419Z" />
<glyph unicode="8" glyph-name="eight" horiz-adv-x="567" d="M51 163Q51 193 59 217T83 260T118 294T160 318Q116 337 92 370T67 453Q67 492 82 523T126 576T195 609T284 621Q386 621 444 576T502 452Q502 400 474 367T401 317Q424 308 445 295T482 262T507 218T517
162Q517 121 500 88T452 33T379 -2T284 -14Q231 -14 189 -2T115 32T68 88T51 163ZM412 167Q412 214 375 244T272 283Q217 270 187 241T156 166Q156 120 190 95T284 69Q342 69 377 94T412 167ZM170 450Q170 426 179 409T206 380T245 361T294 351Q346 365 372 388T398
450Q398 492 368 515T284 538Q232 538 201 514T170 450Z" />
<glyph unicode="9" glyph-name="nine" horiz-adv-x="554" d="M78 56Q78 70 85 83T104 103Q125 92 155 83T223 73Q260 73 292 84T348 120T385 182T399 273Q391 265 378 256T347 238T307 225T257 219Q214 219 176 230T109 266T63 327T46 415Q46 461 62 499T106 564T175
606T264 621Q318 621 362 603T438 547T487 454T505 322Q505 232 485 169T429 65T343 5T231 -14Q198 -14 170 -10T122 4T90 26T78 56ZM275 303Q317 303 351 324T398 371Q398 444 364 489T264 535Q214 535 183 504T151 418Q151 358 187 331T275 303Z" />
<glyph unicode=":" glyph-name="colon" horiz-adv-x="208" d="M39 393Q39 422 56 441T105 460Q137 460 154 441T172 393Q172 364 155 345T105 326Q74 326 57 345T39 393ZM38 53Q38 82 55 101T104 120Q135 120 152 101T170 53Q170 24 153 5T104 -14Q72 -14 55 5T38 53Z" />
<glyph unicode=";" glyph-name="semicolon" horiz-adv-x="220" d="M44 393Q44 422 61 441T110 460Q141 460 158 441T176 393Q176 364 159 345T110 326Q78 326 61 345T44 393ZM109 -88Q98 -104 87 -111T58 -119Q30 -119 11 -100Q19 -78 27 -51T44 5T59 61T70 111Q81
116 94 120T122 124Q143 124 157 114T171 79Q171 61 165 37T149 -10T129 -55T109 -88Z" />
<glyph unicode="&lt;" glyph-name="less" horiz-adv-x="478" d="M445 145Q446 139 446 134T446 124Q446 103 435 89T398 74Q387 74 375 79T348 92L62 245Q55 255 51 267T47 294Q47 317 54 330T73 349L397 514Q423 506 433 493T444 464Q444 442 432 430T399 405L148
294L445 145Z" />
<glyph unicode="=" glyph-name="equal" horiz-adv-x="516" d="M56 355Q46 370 46 395Q46 417 57 428T88 439H460Q463 431 466 421T469 398Q469 375 458 365T427 355H56ZM56 151Q46 166 46 191Q46 213 57 224T88 235H460Q463 227 466 217T469 194Q469 171 458 161T427
151H56Z" />
<glyph unicode="&gt;" glyph-name="greater" horiz-adv-x="469" d="M33 444Q32 450 32 455T31 465Q31 485 43 500T79 515Q90 515 102 511T129 498L409 345Q423 326 423 296Q423 273 416 261T398 241L82 76Q56 84 46 97T35 127Q35 148 46 160T80 184L322 298L33 444Z" />
<glyph unicode="?" glyph-name="question" horiz-adv-x="470" d="M121 203Q110 212 102 226T93 259Q93 294 137 305L209 323Q264 337 293 365T322 438Q322 478 292 507T196 537Q156 537 117 525T54 495Q41 505 34 517T26 547Q26 565 39 580T76 605T133 622T205
628Q257 628 299 614T370 575T416 515T432 439Q432 354 379 303T220 226L121 203ZM104 54Q104 83 122 102T171 121Q202 121 220 102T238 54Q238 25 220 6T171 -13Q140 -13 122 6T104 54Z" />
<glyph unicode="@" glyph-name="at" horiz-adv-x="1019" d="M688 92Q698 86 710 82T739 78Q769 78 791 92T829 131T852 192T860 270Q860 337 837 393T770 489T665 551T529 573Q444 573 375 546T257 470T182 354T155 204Q155 126 179 63T248 -46T355 -115T492 -139Q532
-139 561 -135T611 -125Q617 -133 621 -143T625 -163Q625 -191 595 -207T485 -223Q395 -223 316 -195T179 -112T87 22T53 204Q53 307 87 390T184 532T334 623T528 655Q627 655 707 628T844 550T931 428T962 269Q962 138 905 67T739 -5Q708 -5 677 4T619 33Q597
19 567 10T498 0Q410 0 356 52T302 199Q302 253 319 296T367 370T441 416T538 433Q579 433 614 423T673 399Q714 375 714 345Q714 339 714 332T712 318L688 92ZM407 199Q407 142 436 113T514 83Q558 83 591 110L613 332Q599 339 580 343T534 348Q478 348 443 310T407
199Z" />
<glyph unicode="A" glyph-name="A" horiz-adv-x="602" d="M421 152H177L128 -1Q119 -5 109 -7T85 -9Q60 -9 44 2T28 35Q28 46 31 56T39 80Q52 122 75 188T125 329T179 474T226 597Q236 603 257 608T300 614Q329 614 352 606T383 578Q405 521 431 449T483 299T533
148T576 14Q567 4 553 -2T518 -9Q491 -9 479 1T459 37L421 152ZM299 521Q289 494 277 460T252 389T226 313T201 238H398Q385 278 372 318T346 396T322 465T304 521H299Z" />
<glyph unicode="B" glyph-name="B" horiz-adv-x="604" d="M529 453Q529 409 507 375T437 320Q495 301 523 262T552 171Q552 77 485 33T291 -12Q252 -12 209 -8T128 7Q82 20 82 60V560Q82 577 91 586T118 601Q152 612 193 616T283 620Q400 620 464 579T529 453ZM443
174Q443 220 409 246T311 273H187V83Q208 78 237 76T295 73Q366 73 404 97T443 174ZM187 354H306Q363 354 392 379T421 447Q421 535 283 535Q254 535 230 533T187 528V354Z" />
<glyph unicode="C" glyph-name="C" horiz-adv-x="583" d="M535 535Q535 518 526 505T503 486Q477 503 444 518T359 533Q315 533 279 518T216 474T174 402T159 303Q159 190 215 132T363 74Q412 74 448 88T510 120Q521 113 530 100T540 70Q540 56 533 44T508 22Q486
8 448 -3T352 -14Q288 -14 233 5T137 64T73 163T49 303Q49 381 73 441T137 541T232 601T347 622Q390 622 424 615T483 595T521 567T535 535Z" />
<glyph unicode="D" glyph-name="D" horiz-adv-x="656" d="M497 308Q497 367 480 409T433 479T363 519T277 532Q224 532 189 525V84Q209 79 233 78T283 76Q387 76 442 134T497 308ZM607 309Q607 228 584 168T519 67T416 8T283 -12Q251 -12 208 -9T128 6Q82 21 82
60V561Q82 578 91 587T118 602Q153 613 194 616T274 620Q348 620 409 601T515 543T583 446T607 309Z" />
<glyph unicode="E" glyph-name="E" horiz-adv-x="536" d="M140 -1Q114 -1 98 15T82 57V550Q82 576 98 591T140 607H471Q476 601 479 590T483 566Q483 544 473 532T444 520H188V354H441Q446 348 449 337T453 313Q453 290 443 279T414 268H188V86H476Q480 80 484
69T488 45Q488 22 478 11T449 -1H140V-1Z" />
<glyph unicode="F" glyph-name="F" horiz-adv-x="521" d="M472 607Q477 601 480 590T484 566Q484 519 444 519H189V337H437Q442 330 445 320T449 295Q449 249 410 249H190V1Q183 -1 170 -3T141 -6Q82 -6 82 43V550Q82 576 98 591T140 607H472Z" />
<glyph unicode="G" glyph-name="G" horiz-adv-x="646" d="M582 77Q582 56 572 43T539 18Q513 4 467 -5T373 -14Q302 -14 243 4T140 62T73 161T49 303Q49 383 74 443T141 542T241 602T364 622Q407 622 443 615T505 595T545 568T559 535Q559 518 550 506T528 486Q501
503 464 518T371 533Q326 533 287 518T220 474T175 402T159 303Q159 244 175 201T220 129T288 88T374 74Q406 74 434 79T477 93V253H339Q334 259 331 270T327 294Q327 317 337 328T366 339H534Q555 339 568 327T582 291V77Z" />
<glyph unicode="H" glyph-name="H" horiz-adv-x="659" d="M469 607Q476 609 490 611T519 614Q548 614 562 603T577 564V2Q569 -1 556 -3T527 -6Q496 -6 483 5T469 44V263H190V2Q182 -1 169 -3T140 -6Q109 -6 96 5T82 44V607Q90 609 103 611T132 614Q161 614 175
603T190 564V350H469V607V607Z" />
<glyph unicode="I" glyph-name="I" horiz-adv-x="274" d="M190 2Q183 -1 170 -3T141 -6Q110 -6 97 5T83 44V607Q91 609 104 611T133 614Q162 614 176 603T190 564V2V2Z" />
<glyph unicode="J" glyph-name="J" horiz-adv-x="392" d="M116 77Q160 77 182 97T204 166V607Q211 609 225 611T253 614Q282 614 296 603T311 564V157Q311 112 298 80T261 28T207 -2T138 -12Q82 -12 53 3T24 48Q24 63 30 74T41 92Q58 86 77 82T116 77Z" />
<glyph unicode="K" glyph-name="K" horiz-adv-x="579" d="M190 274V1Q182 -1 169 -4T140 -7Q109 -7 96 4T82 43V607Q90 609 103 611T132 614Q161 614 175 603T190 564V338L447 612Q485 611 502 596T519 559Q519 542 510 528T484 496L294 308Q377 223 439 158T547
51Q545 23 529 8T489 -8Q465 -8 449 5T415 35L190 274Z" />
<glyph unicode="L" glyph-name="L" horiz-adv-x="504" d="M140 -1Q114 -1 98 15T82 57V607Q90 609 103 611T132 614Q161 614 175 603T190 564V89H461Q466 82 470 71T474 46Q474 23 463 11T434 -1H140V-1Z" />
<glyph unicode="M" glyph-name="M" horiz-adv-x="785" d="M448 156Q440 149 426 144T394 139Q373 139 358 145T336 166Q290 272 257 354T203 491H198Q195 420 193 361T187 244T181 128T173 1Q165 -2 153 -4T126 -7Q72 -7 72 37Q72 50 73 83T77 161T83 262T91 373T99
484T107 585Q115 593 133 602T179 611Q211 611 230 600T260 565Q276 530 293 490T327 408T360 325T391 248H396Q415 298 434 347T472 441T507 526T538 598Q549 603 565 607T598 611Q631 611 647 601T669 572Q673 554 678 513T688 417T698 303T707 186T714 82T718
7Q707 0 695 -3T665 -7Q644 -7 629 2T611 36Q607 104 604 170T597 295T592 404T587 489H583Q564 438 532 359T448 156Z" />
<glyph unicode="N" glyph-name="N" horiz-adv-x="665" d="M583 14Q572 5 555 -1T515 -7Q487 -7 467 3T429 43L264 330Q253 349 242 370T220 412T200 452T183 487L178 486Q183 434 185 375T187 262V1Q180 -1 167 -3T139 -6Q109 -6 96 5T82 42V590Q92 601 110 607T150
614Q178 614 199 604T237 565L403 277Q414 258 425 237T446 195T466 155T483 120L487 121Q479 197 478 271T477 417V607Q485 609 498 611T526 614Q556 614 569 603T583 566V14V14Z" />
<glyph unicode="O" glyph-name="O" horiz-adv-x="693" d="M643 304Q643 226 621 167T558 67T464 7T346 -14Q282 -14 228 6T134 67T72 166T49 304Q49 382 72 441T135 540T229 601T346 622Q409 622 463 602T557 541T620 441T643 304ZM534 304Q534 416 483 474T346
533Q262 533 211 474T159 304Q159 192 210 133T346 74Q432 74 483 133T534 304Z" />
<glyph unicode="P" glyph-name="P" horiz-adv-x="571" d="M190 209V2Q182 -1 169 -3T140 -6Q109 -6 96 5T82 44V560Q82 577 91 586T118 601Q149 612 192 616T273 620Q403 620 465 565T528 416Q528 322 466 266T279 209H190ZM272 296Q341 296 380 326T420 416Q420
476 383 504T275 532Q252 532 230 530T189 525V296H272Z" />
<glyph unicode="Q" glyph-name="Q" horiz-adv-x="694" d="M643 304Q643 189 596 115T471 9Q503 -8 529 -21T580 -43T626 -61T671 -78Q672 -85 672 -89T672 -98Q672 -127 656 -142T611 -158Q575 -158 524 -131T412 -58L352 -14H346Q282 -14 228 6T134 67T72 166T49
304Q49 382 72 441T135 541T229 601T346 622Q409 622 463 602T557 541T620 442T643 304ZM534 304Q534 416 483 474T346 533Q262 533 211 475T159 304Q159 192 210 134T346 75Q432 75 483 133T534 304Z" />
<glyph unicode="R" glyph-name="R" horiz-adv-x="594" d="M190 2Q182 -1 169 -3T140 -6Q109 -6 96 5T82 44V560Q82 577 91 586T118 601Q149 612 192 616T278 620Q408 620 471 568T535 420Q535 354 501 308T402 238Q426 208 449 179T492 123T529 75T556 39Q551
16 534 4T497 -8Q473 -8 459 3T431 35L302 221H190V2ZM286 307Q351 307 389 335T427 420Q427 476 389 504T275 532Q252 532 230 530T189 525V307H286Z" />
<glyph unicode="S" glyph-name="S" horiz-adv-x="531" d="M255 74Q318 74 348 100T378 167Q378 203 355 225T282 262L207 285Q172 296 144 310T95 344T65 390T54 452Q54 531 112 576T271 622Q312 622 347 616T407 598T447 571T462 537Q462 520 454 508T433 487Q408
506 368 519T278 533Q223 533 193 511T163 452Q163 422 184 404T253 371L311 354Q395 329 441 286T488 167Q488 127 473 94T428 36T356 -1T257 -14Q211 -14 173 -6T108 15T65 45T50 81Q50 101 62 115T90 136Q114 114 155 94T255 74Z" />
<glyph unicode="T" glyph-name="T" horiz-adv-x="532" d="M318 519V2Q311 -1 298 -3T269 -6Q238 -6 225 5T212 44V519H35Q30 526 27 537T23 562Q23 584 33 595T62 607H497Q501 601 504 590T508 566Q508 519 469 519H318Z" />
<glyph unicode="U" glyph-name="U" horiz-adv-x="653" d="M572 213Q572 162 556 120T508 48T431 2T326 -14Q268 -14 223 2T146 48T98 120T81 213V607Q88 609 102 611T131 614Q160 614 174 603T188 564V219Q188 148 227 111T326 74Q356 74 381 83T425 111T454 156T465
219V607Q472 609 486 611T515 614Q544 614 558 603T572 564V213V213Z" />
<glyph unicode="V" glyph-name="V" horiz-adv-x="597" d="M369 11Q361 5 343 0T303 -6Q278 -6 259 1T233 22Q220 47 203 87T167 176T129 279T90 388T55 493T27 586Q35 596 51 604T86 613Q110 613 123 602T144 566Q183 444 220 331T302 100H307Q326 154 347 215T388
341T428 472T463 602Q483 613 511 613Q534 613 549 602T565 567Q565 550 554 509T525 413T485 297T442 179T401 78T369 11Z" />
<glyph unicode="W" glyph-name="W" horiz-adv-x="819" d="M355 457Q364 462 378 465T410 469Q465 469 476 437Q492 386 506 342T534 257T559 175T584 92H589Q602 158 613 220T636 344T658 469T678 602Q697 613 724 613Q748 613 763 603T779 569Q779 549 774 510T760
420T739 312T714 200T688 97T662 15Q651 7 632 2T589 -4Q560 -4 540 4T515 28Q506 52 494 87T468 164T441 252T414 344Q402 299 388 252T361 160T335 78T312 14Q302 7 284 2T242 -4Q213 -4 193 5T166 28Q157 48 146 86T123 172T97 276T73 387T51 495T35 589Q44
598 59 605T93 613Q140 613 149 566Q162 495 174 434T197 317T219 205T243 92H247Q260 136 271 174T295 254T322 344T355 457Z" />
<glyph unicode="X" glyph-name="X" horiz-adv-x="594" d="M294 234L125 -5Q120 -6 115 -6T103 -7Q73 -7 57 6T41 41Q41 58 48 72T70 104L226 308L42 562Q48 582 64 597T106 613Q126 613 140 603T169 570L297 383L458 609Q463 610 471 611T487 612Q515 612 529
599T544 566Q544 551 536 537T515 506Q478 457 440 409T362 309L554 43Q549 20 533 7T491 -7Q472 -7 459 2T430 35L294 234Z" />
<glyph unicode="Y" glyph-name="Y" horiz-adv-x="557" d="M534 568Q534 546 484 457T337 219V2Q329 -1 316 -3T288 -6Q257 -6 244 5T231 43V218Q204 258 174 304T115 398T61 491T17 576Q23 590 37 601T74 613Q98 613 112 602T141 563Q153 542 172 507T212 435T252
364T282 312H286Q308 352 328 388T366 460T402 530T438 602Q447 607 459 610T483 613Q506 613 520 601T534 568Z" />
<glyph unicode="Z" glyph-name="Z" horiz-adv-x="558" d="M482 608Q508 587 508 554Q508 537 501 523T481 492L178 89H502Q507 82 511 71T515 46Q515 23 504 12T475 0H70Q59 9 53 22T46 53Q46 70 53 85T73 117L377 519H66Q61 526 57 537T53 562Q53 608 94 608H482V608Z" />
<glyph unicode="[" glyph-name="bracketleft" horiz-adv-x="278" d="M260 653Q264 646 266 636T269 614Q269 573 229 573H159V-35H260Q264 -43 266 -52T269 -74Q269 -116 229 -116H113Q87 -116 75 -102T63 -65V603Q63 625 75 639T113 653H260Z" />
<glyph unicode="\" glyph-name="backslash" horiz-adv-x="346" d="M313 -39Q303 -48 288 -55T258 -62Q241 -62 229 -55T212 -28L27 643Q36 654 51 660T81 666Q98 666 110 659T127 633L313 -39Z" />
<glyph unicode="]" glyph-name="bracketright" horiz-adv-x="282" d="M18 -116Q14 -108 12 -99T9 -77Q9 -35 49 -35H119V573H18Q14 580 12 590T9 611Q9 653 49 653H164Q190 653 202 639T215 603V-65Q215 -87 203 -101T164 -116H18Z" />
<glyph unicode="^" glyph-name="asciicircum" horiz-adv-x="470" d="M183 645Q190 650 203 654T234 658Q274 658 286 637Q299 614 318 577T356 498T393 415T421 343Q414 334 401 327T373 320Q353 320 342 329T320 361L234 561H228Q223 548 212 522T187 463T160
395T138 331Q129 326 117 323T93 319Q75 319 62 328T49 357Q49 366 57 388T78 438T106 499T137 561T164 612T183 645Z" />
<glyph unicode="_" glyph-name="underscore" horiz-adv-x="477" d="M9 -141Q5 -133 3 -124T0 -101Q0 -78 11 -68T42 -57H467Q471 -65 474 -75T477 -98Q477 -120 466 -130T435 -141H9Z" />
<glyph unicode="`" glyph-name="grave" horiz-adv-x="302" d="M48 637Q46 647 46 653Q46 675 59 688T93 701Q120 701 139 678L229 566Q227 544 215 533T185 521Q171 521 162 526T143 540L48 637Z" />
<glyph unicode="a" glyph-name="a" horiz-adv-x="511" d="M245 67Q280 67 306 74T343 89V216L234 205Q188 200 165 185T142 137Q142 104 167 86T245 67ZM243 482Q336 482 391 442T446 314V81Q446 58 436 46T407 22Q381 7 340 -4T245 -15Q148 -15 94 23T39 135Q39
201 81 236T204 279L343 293V315Q343 359 315 379T235 399Q195 399 158 388T92 363Q82 371 75 382T68 408Q68 425 76 436T103 455Q131 469 167 475T243 482Z" />
<glyph unicode="b" glyph-name="b" horiz-adv-x="560" d="M292 482Q339 482 380 467T451 421T498 344T515 235Q515 172 498 125T448 48T372 2T273 -14Q219 -14 178 -1T110 29Q89 43 80 57T71 93V649Q78 651 91 654T119 657Q148 657 161 646T175 609V451Q197 463
226 472T292 482ZM275 398Q243 398 218 388T175 363V97Q189 87 214 79T272 71Q333 71 371 111T409 235Q409 320 372 359T275 398Z" />
<glyph unicode="c" glyph-name="c" horiz-adv-x="481" d="M299 397Q267 397 240 387T194 355T163 304T151 233Q151 154 192 113T299 71Q337 71 364 81T411 105Q424 97 432 86T440 59Q440 28 400 7T293 -14Q238 -14 193 1T114 47T63 124T44 233Q44 295 63 342T116
420T195 466T290 482Q323 482 349 476T395 460T424 436T435 407Q435 393 428 382T409 364Q388 377 363 387T299 397Z" />
<glyph unicode="d" glyph-name="d" horiz-adv-x="558" d="M279 482Q309 482 335 476T382 459V649Q389 651 402 654T430 657Q459 657 473 646T487 609V85Q487 64 478 51T450 25Q427 10 388 -2T297 -14Q240 -14 193 0T113 45T62 122T44 232Q44 297 62 344T113 422T187
467T279 482ZM383 371Q366 382 343 390T292 398Q262 398 237 389T192 360T162 308T151 231Q151 147 190 109T296 71Q326 71 346 77T383 93V371Z" />
<glyph unicode="e" glyph-name="e" horiz-adv-x="527" d="M150 181Q164 124 204 97T308 69Q350 69 385 82T441 110Q469 94 469 65Q469 48 456 34T421 9T368 -8T302 -14Q244 -14 197 2T115 50T63 129T44 238Q44 298 62 343T111 419T184 466T274 482Q322 482 361
467T429 424T473 358T489 275Q489 250 477 239T442 223L150 181ZM274 401Q219 401 183 364T144 258L390 293Q386 338 357 369T274 401Z" />
<glyph unicode="f" glyph-name="f" horiz-adv-x="408" d="M172 439H361Q365 433 368 423T372 398Q372 356 334 356H175V2Q168 -1 156 -3T128 -6Q99 -6 85 5T71 42V498Q71 544 84 577T123 631T183 662T262 672Q324 672 357 656T390 611Q390 597 385 587T371 568Q352
576 327 582T276 588Q220 588 196 566T172 494V439Z" />
<glyph unicode="g" glyph-name="g" horiz-adv-x="545" d="M375 44Q356 32 329 24T263 16Q219 16 180 28T110 68T63 140T45 248Q45 306 62 349T111 422T186 467T283 482Q332 482 373 470T441 440Q458 429 467 415T477 381V-13Q477 -63 460 -99T412 -157T339 -190T249
-201Q198 -201 161 -191T107 -171Q76 -152 76 -121Q76 -104 83 -93T101 -74Q124 -90 162 -103T243 -116Q306 -116 340 -91T375 -8V44ZM278 98Q312 98 335 108T374 132V374Q359 383 337 390T285 398Q224 398 187 361T150 249Q150 208 160 179T187 132T227 106T278
98Z" />
<glyph unicode="h" glyph-name="h" horiz-adv-x="560" d="M387 292Q387 347 358 372T280 398Q248 398 222 388T175 362V2Q168 -1 156 -3T128 -6Q99 -6 85 5T71 42V649Q78 651 91 654T119 657Q148 657 161 646T175 609V451Q198 463 228 472T297 482Q384 482 437
436T491 296V2Q484 -1 471 -3T444 -6Q414 -6 401 5T387 42V292V292Z" />
<glyph unicode="i" glyph-name="i" horiz-adv-x="252" d="M178 2Q171 -1 159 -3T130 -6Q101 -6 87 5T73 42V465Q81 467 93 470T122 473Q151 473 164 462T178 424V2ZM62 612Q62 638 80 655T126 673Q154 673 171 656T188 612Q188 586 171 569T126 551Q98 551 80
568T62 612Z" />
<glyph unicode="j" glyph-name="j" horiz-adv-x="255" d="M182 -35Q182 -80 170 -110T140 -160T101 -187T62 -195Q32 -195 18 -178T2 -134Q20 -126 34 -117T57 -95T72 -64T77 -20V465Q84 467 97 470T125 473Q154 473 168 462T182 424V-35ZM65 612Q65 638 82 655T128
673Q156 673 173 656T190 612Q190 586 173 569T128 551Q100 551 83 568T65 612Z" />
<glyph unicode="k" glyph-name="k" horiz-adv-x="506" d="M175 2Q168 -1 156 -3T128 -6Q99 -6 85 5T71 42V649Q78 651 91 654T119 657Q148 657 161 646T175 609V274L381 477Q413 476 431 462T450 426Q450 408 438 394T403 360L270 243L476 55Q473 26 459 10T418
-7Q398 -7 383 3T349 33L175 217V2V2Z" />
<glyph unicode="l" glyph-name="l" horiz-adv-x="256" d="M133 -6Q104 -6 90 5T76 42V649Q83 651 96 654T124 657Q153 657 167 646T181 609V2Q173 -1 161 -3T133 -6Z" />
<glyph unicode="m" glyph-name="m" horiz-adv-x="825" d="M651 313Q651 357 627 377T560 398Q532 398 507 388T460 359Q462 351 463 342T464 324V2Q457 -1 444 -3T417 -6Q388 -6 374 5T360 42V313Q360 357 335 377T268 398Q240 398 215 389T173 369V2Q166 -1 154
-3T126 -6Q97 -6 83 5T69 42V372Q69 395 78 409T108 437Q137 456 181 469T270 482Q317 482 354 469T416 431Q444 453 482 467T572 482Q611 482 645 473T703 443T742 391T756 317V2Q748 -1 736 -3T708 -6Q679 -6 665 5T651 42V313V313Z" />
<glyph unicode="n" glyph-name="n" horiz-adv-x="559" d="M385 303Q385 352 358 375T283 398Q248 398 221 389T173 369V2Q166 -1 154 -3T126 -6Q97 -6 83 5T69 42V372Q69 395 78 409T108 437Q136 454 181 468T283 482Q380 482 435 439T490 307V2Q483 -1 470 -3T442
-6Q413 -6 399 5T385 42V303V303Z" />
<glyph unicode="o" glyph-name="o" horiz-adv-x="562" d="M518 234Q518 177 501 131T454 53T379 4T281 -14Q227 -14 183 3T109 53T61 131T44 234Q44 291 61 337T109 415T184 464T281 482Q334 482 378 465T453 415T501 337T518 234ZM281 398Q221 398 186 355T151
234Q151 156 185 114T281 71Q343 71 377 113T411 234Q411 311 377 354T281 398Z" />
<glyph unicode="p" glyph-name="p" horiz-adv-x="557" d="M281 -14Q249 -14 221 -8T173 9V-179Q166 -182 154 -184T126 -187Q97 -187 83 -176T69 -138V379Q69 401 77 414T107 441Q135 457 175 469T267 482Q319 482 364 468T442 423T494 347T513 236Q513 173 496
127T448 49T375 2T281 -14ZM265 71Q330 71 368 110T406 236Q406 280 395 311T366 361T322 389T267 398Q235 398 213 391T173 373V98Q190 86 213 79T265 71Z" />
<glyph unicode="q" glyph-name="q" horiz-adv-x="557" d="M488 -182Q481 -185 468 -187T440 -190Q411 -190 397 -179T383 -141V10Q363 0 337 -7T277 -14Q226 -14 184 0T110 45T62 122T44 232Q44 295 62 342T114 420T192 466T292 482Q343 482 384 470T452 441Q469
430 478 416T488 381V-182ZM292 71Q320 71 343 79T384 99V374Q369 383 347 390T295 398Q264 398 238 389T193 359T162 308T151 232Q151 147 189 109T292 71Z" />
<glyph unicode="r" glyph-name="r" horiz-adv-x="390" d="M173 2Q166 -1 154 -3T126 -6Q97 -6 83 5T69 42V370Q69 395 79 410T111 440Q140 458 185 470T284 482Q372 482 372 432Q372 420 368 410T359 391Q349 393 334 395T302 397Q262 397 229 389T173 367V2Z" />
<glyph unicode="s" glyph-name="s" horiz-adv-x="459" d="M418 129Q418 62 368 24T223 -14Q184 -14 151 -8T95 9T58 35T45 68Q45 83 52 96T73 117Q101 99 137 84T221 69Q266 69 290 84T314 129Q314 154 298 169T249 192L181 210Q113 228 81 259T49 344Q49 373
61 398T96 442T155 471T235 482Q271 482 300 477T351 462T385 438T397 408Q397 392 390 381T372 362Q354 373 319 386T242 399Q200 399 176 385T152 344Q152 324 165 311T212 290L270 275Q346 255 382 221T418 129Z" />
<glyph unicode="t" glyph-name="t" horiz-adv-x="379" d="M174 137Q174 101 195 86T254 71Q271 71 290 76T323 88Q330 80 335 70T341 46Q341 20 315 3T234 -14Q159 -14 115 19T70 130V597Q77 599 90 602T118 605Q147 605 160 594T174 557V458H329Q333 452 336
441T340 418Q340 375 303 375H174V137V137Z" />
<glyph unicode="u" glyph-name="u" horiz-adv-x="559" d="M69 467Q76 469 89 471T117 474Q146 474 159 463T173 425V178Q173 120 203 96T288 71Q323 71 347 78T385 93V467Q393 469 405 471T433 474Q462 474 476 463T490 425V88Q490 66 483 52T455 25Q429 10 387
-2T287 -14Q184 -14 127 31T69 176V467Z" />
<glyph unicode="v" glyph-name="v" horiz-adv-x="509" d="M426 478Q448 478 462 468T476 434Q476 422 469 394T448 327T419 245T385 158T350 75T317 7Q309 2 293 -2T257 -7Q208 -7 193 20Q179 45 156 98T109 215T63 342T27 452Q36 463 51 470T83 478Q106 478 119
468T141 431L196 259Q202 240 210 217T226 171T242 126T255 89H260Q294 183 325 278T379 467Q398 478 426 478Z" />
<glyph unicode="w" glyph-name="w" horiz-adv-x="746" d="M375 324Q363 280 350 236T323 149T297 71T274 8Q264 1 250 -3T215 -7Q192 -7 174 0T150 22Q138 46 122 99T90 215T59 342T35 454Q43 463 57 470T90 478Q135 478 144 427Q153 376 163 324T184 227T202
146T215 92H219Q224 110 234 144T258 223T288 319T321 422Q344 436 376 436Q399 436 414 428T435 405Q451 355 466 307T493 216T515 142T530 92H535Q555 178 577 274T614 466Q624 471 636 474T660 478Q682 478 695 468T709 436Q709 423 703 392T687 320T664 232T639
142T614 63T594 8Q586 2 570 -2T534 -7Q481 -7 472 18Q463 42 451 77T426 152T400 237T375 324Z" />
<glyph unicode="x" glyph-name="x" horiz-adv-x="493" d="M66 95Q95 132 125 167T184 239Q146 287 111 331T37 421Q42 446 56 461T93 476Q114 476 126 465T152 436Q175 405 199 371T250 302Q284 346 315 386T379 475Q384 476 392 476Q420 476 436 463T452 430Q452
415 446 403T423 370Q396 337 368 304T312 238L462 45Q459 21 444 7T406 -7Q384 -7 371 5T340 38Q317 70 293 104T245 172Q212 128 179 84T115 -6H99Q68 -6 53 7T37 39Q37 52 43 63T66 95Z" />
<glyph unicode="y" glyph-name="y" horiz-adv-x="506" d="M158 109Q133 158 97 248T27 452Q36 463 51 470T83 478Q105 478 119 468T142 431Q169 350 198 272T262 109H266Q281 141 296 184T327 275T355 372T378 467Q388 472 398 475T423 478Q445 478 460 468T475
435Q475 409 462 356T426 238T376 107T320 -10Q270 -98 230 -144T153 -190Q125 -190 109 -175T88 -136Q104 -122 123 -102T161 -59T197 -12T226 36Q209 41 193 55T158 109Z" />
<glyph unicode="z" glyph-name="z" horiz-adv-x="472" d="M63 0Q42 18 42 46Q42 60 48 73T64 98L296 384H59Q55 391 51 402T47 426Q47 448 57 458T85 468H403Q425 451 425 421Q425 407 419 395T403 370L172 83H423Q427 77 430 66T434 42Q434 20 424 10T396 0H63Z" />
<glyph unicode="{" glyph-name="braceleft" horiz-adv-x="296" d="M143 273Q175 256 192 224T209 141V16Q209 -19 223 -33T264 -50Q267 -64 267 -74Q267 -121 217 -121Q172 -121 143 -90T113 5V123Q113 221 40 234Q33 251 33 273Q33 292 40 311Q113 324 113 421V533Q113
596 142 627T218 658Q267 658 267 612Q267 600 264 588Q237 586 223 572T209 522V404Q209 353 192 321T143 273Z" />
<glyph unicode="|" glyph-name="bar" horiz-adv-x="259" d="M177 -177Q158 -184 133 -184Q108 -184 95 -174T82 -136V675Q90 677 101 679T126 682Q152 682 164 672T177 633V-177Z" />
<glyph unicode="}" glyph-name="braceright" horiz-adv-x="296" d="M153 273Q121 288 104 320T87 404V522Q87 557 73 571T32 588Q29 600 29 612Q29 658 78 658Q124 658 153 627T183 533V421Q183 324 256 311Q263 292 263 273Q263 251 256 234Q183 221 183 123V5Q183
-58 154 -89T79 -121Q29 -121 29 -74Q29 -64 32 -50Q59 -48 73 -34T87 16V141Q87 192 104 224T153 273Z" />
<glyph unicode="~" glyph-name="asciitilde" horiz-adv-x="463" d="M316 291Q342 291 354 305T374 334Q401 334 421 319T441 277Q441 239 413 219T339 198Q310 198 285 204T236 217T191 231T148 237Q122 237 109 222T89 193Q62 193 43 209T23 251Q23 289 52 309T124
330Q153 330 179 324T228 311T273 297T316 291Z" />
<glyph unicode="&#xa0;" glyph-name="uni00A0" horiz-adv-x="200" />
<glyph unicode="&#xa1;" glyph-name="exclamdown" horiz-adv-x="263" d="M79 -115Q79 -87 80 -41T82 59T86 165T93 261Q100 266 111 269T134 272Q153 272 164 266T178 242Q181 215 183 165T187 59T190 -54T191 -152Q164 -168 132 -168Q107 -168 93 -155T79 -115ZM201
406Q201 377 183 359T134 340Q102 340 85 358T67 406Q67 435 84 454T134 473Q165 473 183 454T201 406Z" />
<glyph unicode="&#xa2;" glyph-name="cent" horiz-adv-x="480" d="M299 397Q235 397 193 355T150 233Q150 154 191 113T298 71Q337 71 364 81T411 105Q424 97 431 86T439 59Q439 30 405 11T314 -13V-102Q308 -104 297 -106T273 -108Q220 -108 220 -64V-6Q139 11
91 70T43 233Q43 284 56 324T93 395T149 445T220 474V572Q226 574 237 576T262 578Q314 578 314 534V481Q369 476 402 455T435 407Q435 393 427 382T408 364Q388 377 363 387T299 397Z" />
<glyph unicode="&#xa3;" glyph-name="sterling" horiz-adv-x="504" d="M137 222Q137 229 137 237T135 257H88Q73 257 63 266T52 299Q52 312 55 322T62 340H127Q125 361 124 380T122 416Q122 470 138 509T183 573T250 610T332 622Q398 622 430 601T462 553Q462
542 456 529T438 507Q417 521 396 528T343 535Q284 535 255 504T226 406Q226 376 229 340H404Q408 332 411 322T414 299Q414 276 404 267T378 257H237Q238 246 238 237T239 220Q239 174 227 141T191 84H464Q474 67 474 42Q474 21 464 11T438 0H100Q79 0 64 14T49
54Q49 59 49 61T50 69Q72 80 88 92T115 123T131 165T137 222Z" />
<glyph unicode="&#xa4;" glyph-name="currency" horiz-adv-x="536" d="M460 296Q460 258 450 227T419 173L476 106Q467 86 454 76T425 66Q411 66 399 77T375 103L356 126Q315 108 267 108Q218 108 178 125L126 59Q104 63 88 74T72 105Q72 118 79 130T98 157L112
175Q74 222 74 296Q74 369 113 417L59 482Q68 502 81 511T110 521Q124 521 136 510T159 484L175 465Q218 484 266 484Q319 484 361 463L412 528Q433 524 449 514T465 483Q465 470 458 457T439 430L424 411Q460 364 460 296ZM367 296Q367 350 340 379T267 408Q221
408 193 379T165 296Q165 242 193 213T267 184Q312 184 339 213T367 296Z" />
<glyph unicode="&#xa5;" glyph-name="yen" horiz-adv-x="560" d="M517 573Q517 564 508 544T482 495T442 428T392 347H502Q506 339 509 330T512 309Q512 291 503 282T481 273H63Q58 279 55 289T52 310Q52 330 61 338T83 347H176Q134 410 97 473T36 584Q44 595
58 605T92 616Q115 616 127 605T156 568L282 354H287Q308 389 324 418T356 476T387 536T423 605Q447 616 470 616Q492 616 504 604T517 573ZM336 135V1Q329 -1 316 -3T288 -6Q230 -6 230 43V135H63Q58 141 55 151T52 173Q52 194 61 201T82 209H501Q504 203 507
193T510 172Q510 153 502 144T480 135H336Z" />
<glyph unicode="&#xa6;" glyph-name="brokenbar" horiz-adv-x="293" d="M177 311Q158 304 133 304Q108 304 95 314T82 352V675Q101 682 126 682Q152 682 164 672T177 634V311ZM177 -177Q158 -184 133 -184Q108 -184 95 -174T82 -136V187Q101 194 126 194Q152 194
164 184T177 146V-177Z" />
<glyph unicode="&#xa7;" glyph-name="section" horiz-adv-x="516" d="M458 282Q458 250 444 225T408 182Q432 166 445 143T458 86Q458 21 405 -15T249 -51Q208 -51 173 -45T113 -28T73 -2T58 31Q58 48 65 59T86 79Q118 59 157 45T247 31Q355 31 355 87Q355 110
338 122T280 142L198 159Q135 172 97 202T59 294Q59 327 73 350T112 390Q89 406 76 429T63 488Q63 552 113 587T253 622Q290 622 321 617T376 602T413 579T427 549Q427 533 420 522T403 504Q379 517 340 528T258 540Q215 540 191 527T166 486Q166 463 182 452T229
435L305 421Q375 408 416 375T458 282ZM226 236Q260 228 278 225T304 219T315 217T323 215Q340 226 349 241T358 278Q358 326 280 341L198 357Q196 357 195 357T192 358Q159 336 159 297Q159 250 226 236Z" />
<glyph unicode="&#xa8;" glyph-name="dieresis" horiz-adv-x="374" d="M156 613Q156 589 140 572T97 555Q71 555 55 572T39 613Q39 636 55 653T97 670Q123 670 139 653T156 613ZM341 613Q341 589 325 572T282 555Q256 555 240 572T223 613Q223 636 239 653T282
670Q308 670 324 653T341 613Z" />
<glyph unicode="&#xa9;" glyph-name="copyright" horiz-adv-x="713" d="M49 301Q49 366 71 423T133 522T230 588T355 612Q423 612 480 588T578 522T641 423T664 301Q664 237 642 182T578 86T480 22T355 -2Q286 -2 230 21T134 85T71 181T49 301ZM355 548Q301 548
258 530T185 479T139 401T123 301Q123 248 139 204T185 129T258 80T355 62Q409 62 452 79T525 128T571 204T587 301Q587 355 571 400T525 478T452 529T355 548ZM382 407Q363 407 346 401T315 383T293 351T285 305Q285 255 313 229T384 203Q409 203 424 209T452
224Q473 209 473 187Q473 168 448 152T374 135Q338 135 307 146T253 179T217 232T203 306Q203 350 218 382T257 435T310 466T369 476Q413 476 440 461T468 420Q468 411 462 402T448 387Q435 394 419 400T382 407Z" />
<glyph unicode="&#xaa;" glyph-name="ordfeminine" horiz-adv-x="353" d="M171 360Q190 360 206 364T231 373V445L169 439Q108 433 108 402Q108 360 171 360ZM168 621Q228 621 266 596T305 508V356Q305 345 298 337T279 322Q237 300 171 300Q108 300 71 324T34
398Q34 443 63 466T149 494L231 502V509Q231 538 214 549T161 560Q135 560 110 553T67 535Q60 540 55 549T49 569Q49 582 55 589T73 602Q90 610 116 615T168 621Z" />
<glyph unicode="&#xab;" glyph-name="guillemotleft" horiz-adv-x="498" d="M254 85Q254 66 242 51T205 36Q190 36 177 45T152 67L45 183Q33 200 33 224Q33 244 38 255T52 274L197 423Q222 417 234 405T247 376Q247 361 240 350T215 320L120 224L254 85ZM460 85Q460
66 448 51T412 36Q396 36 383 45T359 67L251 183Q240 199 240 224Q240 244 245 255T258 274L404 423Q428 417 440 405T453 376Q453 361 446 350T421 320L327 224L460 85Z" />
<glyph unicode="&#xac;" glyph-name="logicalnot" horiz-adv-x="538" d="M444 401Q466 401 479 389T492 353V182Q473 175 446 175Q420 175 407 185T394 224V318H55Q51 326 48 336T45 358Q45 380 56 390T86 401H444Z" />
<glyph unicode="&#xad;" glyph-name="uni00AD" horiz-adv-x="379" d="M58 216Q53 224 50 234T47 258Q47 280 58 291T90 302H322Q325 294 328 284T332 261Q332 239 321 228T290 216H58Z" />
<glyph unicode="&#xae;" glyph-name="registered" horiz-adv-x="619" d="M52 376Q52 428 70 473T122 553T203 608T309 628Q366 628 413 608T494 554T548 474T567 376Q567 324 548 278T495 198T413 144T309 124Q251 124 204 144T123 198T71 278T52 376ZM117 376Q117
334 130 298T169 236T230 196T309 181Q352 181 387 195T448 236T487 298T501 376Q501 418 488 453T449 515T388 556T309 571Q265 571 230 557T170 516T131 454T117 376ZM282 346V267Q277 266 270 266T253 265Q239 265 232 269T224 290V476Q224 489 244 494Q258
498 271 499T301 500Q352 500 378 480T405 423Q405 397 391 380T357 355L412 286Q410 276 401 270T380 264Q368 264 360 270T344 287L304 346H282ZM309 391Q346 391 346 424Q346 439 335 447T305 455Q298 455 293 455T282 453V391H309Z" />
<glyph unicode="&#xaf;" glyph-name="overscore" horiz-adv-x="338" d="M37 568Q33 576 29 586T25 609Q25 632 35 641T63 651H301Q313 634 313 610Q313 587 303 578T275 568H37Z" />
<glyph unicode="&#xb0;" glyph-name="degree" horiz-adv-x="360" d="M328 485Q328 453 317 428T285 386T238 359T181 349Q149 349 122 359T75 387T44 430T33 485Q33 516 44 541T76 584T123 611T180 621Q210 621 237 612T284 585T316 542T328 485ZM180 552Q155
552 136 535T116 485Q116 452 135 435T180 417Q206 417 225 434T244 485Q244 518 225 535T180 552Z" />
<glyph unicode="&#xb1;" glyph-name="plusminus" horiz-adv-x="547" d="M323 401H476Q479 393 482 383T485 360Q485 317 443 317H323V161Q315 159 304 157T279 154Q253 154 241 164T228 203V317H71Q67 325 65 335T62 357Q62 379 73 390T104 401H228V552Q236 555
247 557T273 560Q298 560 310 550T323 511V401ZM71 0Q67 8 65 18T62 40Q62 62 73 73T104 84H476Q479 76 482 66T485 43Q485 0 443 0H71Z" />
<glyph unicode="&#xb2;" glyph-name="twosuperior" horiz-adv-x="277" d="M124 698Q178 698 209 672T241 597Q241 566 224 538T166 478L105 428H241Q248 416 248 400Q248 371 219 371H39Q23 385 23 407Q23 422 27 431T38 447L121 521Q147 544 159 561T171 596Q171
618 157 629T119 640Q99 640 82 633T52 616Q44 621 39 628T34 649Q34 671 60 684T124 698Z" />
<glyph unicode="&#xb3;" glyph-name="threesuperior" horiz-adv-x="276" d="M131 563Q150 563 161 572T173 599Q173 618 158 629T114 640Q92 640 74 634T44 619Q36 625 31 633T26 653Q26 674 54 686T123 698Q180 698 211 673T242 606Q242 583 230 565T195 537Q218
529 232 509T247 460Q247 411 212 387T122 363Q75 363 46 378T16 415Q16 427 22 436T38 450Q51 440 70 431T117 422Q145 422 161 433T178 466Q178 484 166 495T131 507H77Q73 512 71 519T68 535Q68 552 77 563H131Z" />
<glyph unicode="&#xb4;" glyph-name="acute" horiz-adv-x="298" d="M184 705Q214 704 231 690T248 658Q248 641 241 631T217 605L125 519Q99 519 84 532T69 562Q69 572 73 580T86 596L184 705Z" />
<glyph unicode="&#xb5;" glyph-name="mu" horiz-adv-x="560" d="M175 178Q175 120 206 96T289 71Q324 71 348 78T387 93V467Q394 469 406 471T435 474Q464 474 478 463T492 425V88Q492 66 485 52T457 25Q434 11 396 -1T303 -14Q258 -14 224 -3T166 33Q170 1 172
-38T175 -118V-177Q168 -180 156 -183T128 -186Q99 -186 85 -175T70 -138V467Q77 469 90 471T118 474Q147 474 161 463T175 425V178V178Z" />
<glyph unicode="&#xb6;" glyph-name="paragraph" horiz-adv-x="471" d="M348 613Q375 613 390 604T405 563V-69Q399 -71 386 -73T358 -76Q331 -76 316 -66T300 -27V524H234V263Q234 250 220 242T176 234Q147 234 118 245T66 278T29 335T15 418Q15 467 32 504T78
565T145 601T224 613H348Z" />
<glyph unicode="&#xb7;" glyph-name="middot" horiz-adv-x="168" d="M18 257Q18 286 35 305T84 324Q116 324 133 305T150 257Q150 228 133 209T84 190Q53 190 36 209T18 257Z" />
<glyph unicode="&#xb8;" glyph-name="cedilla" horiz-adv-x="195" d="M115 23Q146 3 159 -25T172 -85Q172 -134 142 -163T60 -193Q31 -193 14 -181T-3 -145Q-3 -139 -2 -132T2 -119H16Q51 -119 66 -104T82 -63Q82 -49 76 -31T54 3L115 23Z" />
<glyph unicode="&#xb9;" glyph-name="onesuperior" horiz-adv-x="214" d="M95 617L40 593Q30 598 22 607T14 630Q14 652 40 663L113 694H126Q163 694 163 655V373Q157 371 149 369T131 367Q114 367 105 373T95 400V617Z" />
<glyph unicode="&#xba;" glyph-name="ordmasculine" horiz-adv-x="383" d="M342 460Q342 382 301 341T191 300Q123 300 81 341T39 461Q39 539 81 580T191 621Q259 621 300 579T342 460ZM191 558Q156 558 136 533T116 461Q116 414 136 389T191 364Q225 364 245
388T265 460Q265 506 246 532T191 558Z" />
<glyph unicode="&#xbb;" glyph-name="guillemotright" horiz-adv-x="498" d="M244 373Q244 392 256 407T292 423Q308 423 321 414T345 392L453 276Q465 259 465 235Q465 215 460 204T446 184L300 36Q276 42 264 54T251 83Q251 98 258 109T283 139L377 235L244
373ZM38 373Q38 392 50 407T86 423Q102 423 115 414T139 392L247 276Q252 268 255 258T258 235Q258 215 253 204T239 184L93 36Q69 42 57 54T45 83Q45 98 51 109T77 139L171 235L38 373Z" />
<glyph unicode="&#xbc;" glyph-name="onequarter" horiz-adv-x="610" d="M89 537L34 513Q24 518 16 527T8 550Q8 572 34 583L107 614H120Q157 614 157 575V293Q151 291 143 289T125 287Q108 287 99 293T89 320V537ZM481 69H343Q321 79 321 106Q321 124 332 139L462
316Q479 321 499 321Q518 321 532 313T547 285V126H593Q599 115 599 99Q599 83 592 76T573 69H547V1Q534 -4 515 -4Q498 -4 490 2T481 28V69ZM483 184Q483 197 483 215T485 251L399 126H483V184ZM453 611Q476 609 488 600T501 576Q501 565 497 555T483 531L120
-6Q73 -1 71 29Q71 40 76 50T91 75L453 611Z" />
<glyph unicode="&#xbd;" glyph-name="onehalf" horiz-adv-x="625" d="M89 537L34 513Q24 518 16 527T8 550Q8 572 34 583L107 614H120Q157 614 157 575V293Q151 291 143 289T125 287Q108 287 99 293T89 320V537ZM476 327Q530 327 561 301T593 226Q593 195 576
167T518 107L457 57H593Q600 45 600 29Q600 0 571 0H391Q375 14 375 36Q375 51 379 60T390 76L473 150Q499 173 511 190T523 225Q523 247 509 258T471 269Q451 269 434 262T404 245Q396 250 391 257T386 278Q386 300 412 313T476 327ZM453 611Q476 609 488 600T501
576Q501 565 497 555T483 531L120 -6Q73 -1 71 29Q71 40 76 50T91 75L453 611Z" />
<glyph unicode="&#xbe;" glyph-name="threequarters" horiz-adv-x="658" d="M131 484Q150 484 161 493T173 520Q173 539 158 550T114 561Q92 561 74 555T44 540Q36 546 31 554T26 574Q26 595 54 607T123 619Q180 619 211 594T242 527Q242 504 230 486T195 458Q218
450 232 430T247 381Q247 332 212 308T122 284Q75 284 46 299T16 336Q16 348 22 357T38 371Q51 361 70 352T117 343Q145 343 161 354T178 387Q178 405 166 416T131 428H77Q73 433 71 440T68 456Q68 473 77 484H131ZM529 69H391Q369 79 369 106Q369 124 380 139L510
316Q527 321 547 321Q566 321 580 313T595 285V126H641Q647 115 647 99Q647 83 640 76T621 69H595V1Q582 -4 563 -4Q546 -4 538 2T529 28V69ZM531 184Q531 197 531 215T533 251L447 126H531V184ZM504 611Q527 609 539 600T552 576Q552 565 548 555T534 531L171
-6Q124 -1 122 29Q122 40 127 50T142 75L504 611Z" />
<glyph unicode="&#xbf;" glyph-name="questiondown" horiz-adv-x="470" d="M346 257Q357 248 365 234T374 201Q374 166 330 155L258 137Q203 123 174 95T145 22Q145 -18 175 -47T271 -77Q311 -77 350 -65T413 -35Q426 -45 433 -57T441 -87Q441 -105 428 -120T391
-145T334 -162T262 -168Q210 -168 168 -154T97 -115T51 -55T35 21Q35 106 88 157T247 234L346 257ZM363 406Q363 377 345 358T296 339Q265 339 247 358T229 406Q229 435 247 454T296 473Q327 473 345 454T363 406Z" />
<glyph unicode="&#xc0;" glyph-name="Agrave" horiz-adv-x="602" d="M421 152H177L128 -1Q119 -5 109 -7T85 -9Q60 -9 44 2T28 35Q28 46 31 56T39 80Q52 122 75 188T125 329T179 474T226 597Q236 603 257 608T300 614Q329 614 352 606T383 578Q405 521 431 449T483
299T533 148T576 14Q567 4 553 -2T518 -9Q491 -9 479 1T459 37L421 152ZM299 521Q289 494 277 460T252 389T226 313T201 238H398Q385 278 372 318T346 396T322 465T304 521H299ZM166 760Q165 764 165 768T165 775Q165 797 177 810T210 823Q236 823 256 800L341
703Q339 682 327 671T298 660Q284 660 275 665T255 679L166 760Z" />
<glyph unicode="&#xc1;" glyph-name="Aacute" horiz-adv-x="602" d="M421 152H177L128 -1Q119 -5 109 -7T85 -9Q60 -9 44 2T28 35Q28 46 31 56T39 80Q52 122 75 188T125 329T179 474T226 597Q236 603 257 608T300 614Q329 614 352 606T383 578Q405 521 431 449T483
299T533 148T576 14Q567 4 553 -2T518 -9Q491 -9 479 1T459 37L421 152ZM299 521Q289 494 277 460T252 389T226 313T201 238H398Q385 278 372 318T346 396T322 465T304 521H299ZM379 827Q406 826 421 813T436 782Q436 766 429 756T405 731L316 660Q291 661 278
671T264 698Q264 717 281 733L379 827Z" />
<glyph unicode="&#xc2;" glyph-name="Acircumflex" horiz-adv-x="602" d="M305 746Q286 727 263 704T213 656Q192 658 178 669T164 697Q164 712 172 722T196 747L247 796Q277 823 306 823Q325 823 339 816T368 793L449 703Q449 682 438 671T406 659Q392 659 381
666T352 693L305 746ZM421 152H177L128 -1Q119 -5 109 -7T85 -9Q60 -9 44 2T28 35Q28 46 31 56T39 80Q52 122 75 188T125 329T179 474T226 597Q236 603 257 608T300 614Q329 614 352 606T383 578Q405 521 431 449T483 299T533 148T576 14Q567 4 553 -2T518 -9Q491
-9 479 1T459 37L421 152ZM299 521Q289 494 277 460T252 389T226 313T201 238H398Q385 278 372 318T346 396T322 465T304 521H299Z" />
<glyph unicode="&#xc3;" glyph-name="Atilde" horiz-adv-x="602" d="M421 152H177L128 -1Q119 -5 109 -7T85 -9Q60 -9 44 2T28 35Q28 46 31 56T39 80Q52 122 75 188T125 329T179 474T226 597Q236 603 257 608T300 614Q329 614 352 606T383 578Q405 521 431 449T483
299T533 148T576 14Q567 4 553 -2T518 -9Q491 -9 479 1T459 37L421 152ZM299 521Q289 494 277 460T252 389T226 313T201 238H398Q385 278 372 318T346 396T322 465T304 521H299ZM231 802Q252 802 270 797T304 786T335 774T363 769Q382 769 391 780T405 806H411Q433
806 449 794T465 757Q465 724 443 706T386 688Q364 688 345 693T309 704T278 716T251 721Q232 721 223 710T210 683H204Q182 683 166 695T149 733Q149 766 174 784T231 802Z" />
<glyph unicode="&#xc4;" glyph-name="Adieresis" horiz-adv-x="602" d="M421 152H177L128 -1Q119 -5 109 -7T85 -9Q60 -9 44 2T28 35Q28 46 31 56T39 80Q52 122 75 188T125 329T179 474T226 597Q236 603 257 608T300 614Q329 614 352 606T383 578Q405 521 431
449T483 299T533 148T576 14Q567 4 553 -2T518 -9Q491 -9 479 1T459 37L421 152ZM299 521Q289 494 277 460T252 389T226 313T201 238H398Q385 278 372 318T346 396T322 465T304 521H299ZM268 741Q268 717 252 700T209 683Q183 683 167 700T151 741Q151 764 167
781T209 798Q235 798 251 781T268 741ZM453 741Q453 717 437 700T394 683Q368 683 352 700T335 741Q335 764 351 781T394 798Q420 798 436 781T453 741Z" />
<glyph unicode="&#xc5;" glyph-name="Aring" horiz-adv-x="602" d="M421 152H177L128 -1Q119 -5 109 -7T85 -9Q60 -9 44 2T28 35Q28 46 31 56T39 80Q52 122 75 188T125 329T179 474T226 597Q236 603 257 608T300 614Q329 614 352 606T383 578Q405 521 431 449T483
299T533 148T576 14Q567 4 553 -2T518 -9Q491 -9 479 1T459 37L421 152ZM299 521Q289 494 277 460T252 389T226 313T201 238H398Q385 278 372 318T346 396T322 465T304 521H299ZM191 747Q191 788 221 815T304 843Q358 843 388 816T418 747Q418 706 388 679T304
652Q251 652 221 679T191 747ZM262 747Q262 729 274 719T304 708Q323 708 335 718T348 747Q348 765 336 775T304 786Q286 786 274 776T262 747Z" />
<glyph unicode="&#xc6;" glyph-name="AE" horiz-adv-x="853" d="M457 -1Q431 -1 416 15T401 57V152H205L128 -2Q119 -4 112 -6T90 -9Q62 -9 49 2T36 33Q36 52 51 81Q61 101 79 136T121 216T172 311T226 412T279 510T326 595Q335 602 352 607T392 612Q408 612 425
608T455 596Q471 607 494 607H788Q793 601 796 590T800 566Q800 544 790 532T761 520H505V354H758Q763 348 766 337T770 313Q770 290 760 279T731 268H505V86H793Q797 80 801 69T805 45Q805 22 795 11T766 -1H457ZM249 238H401V518H395L249 238Z" />
<glyph unicode="&#xc7;" glyph-name="Ccedilla" horiz-adv-x="583" d="M535 535Q535 518 526 505T503 486Q477 503 444 518T359 533Q315 533 279 518T216 474T174 402T159 303Q159 190 215 132T363 74Q412 74 448 88T510 120Q521 113 530 100T540 70Q540 56 533
44T508 22Q491 11 464 2T398 -11Q419 -44 419 -85Q419 -134 389 -163T307 -193Q278 -193 261 -181T244 -145Q244 -139 245 -132T249 -119H263Q298 -119 313 -104T329 -63Q329 -52 325 -39T313 -12Q256 -7 208 15T125 76T69 172T49 303Q49 381 73 441T137 541T232
601T347 622Q390 622 424 615T483 595T521 567T535 535Z" />
<glyph unicode="&#xc8;" glyph-name="Egrave" horiz-adv-x="544" d="M149 -1Q123 -1 107 15T91 57V550Q91 576 107 591T149 607H480Q485 601 488 590T492 566Q492 544 482 532T453 520H197V354H450Q455 348 458 337T462 313Q462 290 452 279T423 268H197V86H485Q489
80 493 69T497 45Q497 22 487 11T458 -1H149ZM178 760Q177 764 177 768T177 775Q177 797 189 810T222 823Q248 823 268 800L353 703Q351 682 339 671T310 660Q296 660 287 665T267 679L178 760Z" />
<glyph unicode="&#xc9;" glyph-name="Eacute" horiz-adv-x="544" d="M149 -1Q123 -1 107 15T91 57V550Q91 576 107 591T149 607H480Q485 601 488 590T492 566Q492 544 482 532T453 520H197V354H450Q455 348 458 337T462 313Q462 290 452 279T423 268H197V86H485Q489
80 493 69T497 45Q497 22 487 11T458 -1H149ZM372 827Q399 826 414 813T429 782Q429 766 422 756T398 731L309 660Q284 661 271 671T257 698Q257 717 274 733L372 827Z" />
<glyph unicode="&#xca;" glyph-name="Ecircumflex" horiz-adv-x="544" d="M149 -1Q123 -1 107 15T91 57V550Q91 576 107 591T149 607H480Q485 601 488 590T492 566Q492 544 482 532T453 520H197V354H450Q455 348 458 337T462 313Q462 290 452 279T423 268H197V86H485Q489
80 493 69T497 45Q497 22 487 11T458 -1H149ZM295 746Q276 727 253 704T203 656Q182 658 168 669T154 697Q154 712 162 722T186 747L237 796Q267 823 296 823Q315 823 329 816T358 793L439 703Q439 682 428 671T396 659Q382 659 371 666T342 693L295 746Z" />
<glyph unicode="&#xcb;" glyph-name="Edieresis" horiz-adv-x="544" d="M149 -1Q123 -1 107 15T91 57V550Q91 576 107 591T149 607H480Q485 601 488 590T492 566Q492 544 482 532T453 520H197V354H450Q455 348 458 337T462 313Q462 290 452 279T423 268H197V86H485Q489
80 493 69T497 45Q497 22 487 11T458 -1H149ZM264 735Q264 711 248 694T205 677Q179 677 163 694T147 735Q147 758 163 775T205 792Q231 792 247 775T264 735ZM449 735Q449 711 433 694T390 677Q364 677 348 694T331 735Q331 758 347 775T390 792Q416 792 432 775T449
735Z" />
<glyph unicode="&#xcc;" glyph-name="Igrave" horiz-adv-x="274" d="M190 2Q183 -1 170 -3T141 -6Q110 -6 97 5T83 44V607Q91 609 104 611T133 614Q162 614 176 603T190 564V2ZM-3 760Q-4 764 -4 768T-4 775Q-4 797 8 810T41 823Q67 823 87 800L172 703Q170 682
158 671T129 660Q115 660 106 665T86 679L-3 760Z" />
<glyph unicode="&#xcd;" glyph-name="Iacute" horiz-adv-x="274" d="M190 2Q183 -1 170 -3T141 -6Q110 -6 97 5T83 44V607Q91 609 104 611T133 614Q162 614 176 603T190 564V2ZM208 827Q235 826 250 813T265 782Q265 766 258 756T234 731L145 660Q120 661 107
671T93 698Q93 717 110 733L208 827Z" />
<glyph unicode="&#xce;" glyph-name="Icircumflex" horiz-adv-x="274" d="M190 2Q183 -1 170 -3T141 -6Q110 -6 97 5T83 44V607Q91 609 104 611T133 614Q162 614 176 603T190 564V2ZM137 746Q118 727 95 704T45 656Q24 658 10 669T-4 697Q-4 712 4 722T28 747L79
796Q109 823 138 823Q157 823 171 816T200 793L281 703Q281 682 270 671T238 659Q224 659 213 666T184 693L137 746Z" />
<glyph unicode="&#xcf;" glyph-name="Idieresis" horiz-adv-x="274" d="M190 2Q183 -1 170 -3T141 -6Q110 -6 97 5T83 44V607Q91 609 104 611T133 614Q162 614 176 603T190 564V2ZM102 735Q102 711 86 694T43 677Q17 677 1 694T-15 735Q-15 758 1 775T43 792Q69
792 85 775T102 735ZM287 735Q287 711 271 694T228 677Q202 677 186 694T169 735Q169 758 185 775T228 792Q254 792 270 775T287 735Z" />
<glyph unicode="&#xd0;" glyph-name="Eth" horiz-adv-x="687" d="M637 309Q637 228 614 168T549 67T446 8T313 -12Q281 -12 238 -9T158 6Q112 21 112 60V261H25Q20 268 17 278T13 303Q13 325 23 336T52 348H112V561Q112 578 121 587T148 602Q183 613 224 616T304
620Q378 620 439 601T545 543T613 446T637 309ZM527 308Q527 367 510 409T463 479T393 519T307 532Q254 532 219 525V348H357Q361 341 365 331T369 307Q369 284 359 273T330 261H219V84Q239 79 263 78T313 76Q417 76 472 134T527 308Z" />
<glyph unicode="&#xd1;" glyph-name="Ntilde" horiz-adv-x="665" d="M583 14Q572 5 555 -1T515 -7Q487 -7 467 3T429 43L264 330Q253 349 242 370T220 412T200 452T183 487L178 486Q183 434 185 375T187 262V1Q180 -1 167 -3T139 -6Q109 -6 96 5T82 42V590Q92
601 110 607T150 614Q178 614 199 604T237 565L403 277Q414 258 425 237T446 195T466 155T483 120L487 121Q479 197 478 271T477 417V607Q485 609 498 611T526 614Q556 614 569 603T583 566V14ZM250 802Q271 802 289 797T323 786T354 774T382 769Q401 769 410 780T424
806H430Q452 806 468 794T484 757Q484 724 462 706T405 688Q383 688 364 693T328 704T297 716T270 721Q251 721 242 710T229 683H223Q201 683 185 695T168 733Q168 766 193 784T250 802Z" />
<glyph unicode="&#xd2;" glyph-name="Ograve" horiz-adv-x="693" d="M643 304Q643 226 621 167T558 67T464 7T346 -14Q282 -14 228 6T134 67T72 166T49 304Q49 382 72 441T135 540T229 601T346 622Q409 622 463 602T557 541T620 441T643 304ZM534 304Q534 416
483 474T346 533Q262 533 211 474T159 304Q159 192 210 133T346 74Q432 74 483 133T534 304ZM214 760Q213 764 213 768T213 775Q213 797 225 810T258 823Q284 823 304 800L389 703Q387 682 375 671T346 660Q332 660 323 665T303 679L214 760Z" />
<glyph unicode="&#xd3;" glyph-name="Oacute" horiz-adv-x="693" d="M643 304Q643 226 621 167T558 67T464 7T346 -14Q282 -14 228 6T134 67T72 166T49 304Q49 382 72 441T135 540T229 601T346 622Q409 622 463 602T557 541T620 441T643 304ZM534 304Q534 416
483 474T346 533Q262 533 211 474T159 304Q159 192 210 133T346 74Q432 74 483 133T534 304ZM425 827Q452 826 467 813T482 782Q482 766 475 756T451 731L362 660Q337 661 324 671T310 698Q310 717 327 733L425 827Z" />
<glyph unicode="&#xd4;" glyph-name="Ocircumflex" horiz-adv-x="693" d="M643 304Q643 226 621 167T558 67T464 7T346 -14Q282 -14 228 6T134 67T72 166T49 304Q49 382 72 441T135 540T229 601T346 622Q409 622 463 602T557 541T620 441T643 304ZM534 304Q534
416 483 474T346 533Q262 533 211 474T159 304Q159 192 210 133T346 74Q432 74 483 133T534 304ZM346 746Q327 727 304 704T254 656Q233 658 219 669T205 697Q205 712 213 722T237 747L288 796Q318 823 347 823Q366 823 380 816T409 793L490 703Q490 682 479 671T447
659Q433 659 422 666T393 693L346 746Z" />
<glyph unicode="&#xd5;" glyph-name="Otilde" horiz-adv-x="693" d="M643 304Q643 226 621 167T558 67T464 7T346 -14Q282 -14 228 6T134 67T72 166T49 304Q49 382 72 441T135 540T229 601T346 622Q409 622 463 602T557 541T620 441T643 304ZM534 304Q534 416
483 474T346 533Q262 533 211 474T159 304Q159 192 210 133T346 74Q432 74 483 133T534 304ZM270 802Q291 802 309 797T343 786T374 774T402 769Q421 769 430 780T444 806H450Q472 806 488 794T504 757Q504 724 482 706T425 688Q403 688 384 693T348 704T317 716T290
721Q271 721 262 710T249 683H243Q221 683 205 695T188 733Q188 766 213 784T270 802Z" />
<glyph unicode="&#xd6;" glyph-name="Odieresis" horiz-adv-x="693" d="M643 304Q643 226 621 167T558 67T464 7T346 -14Q282 -14 228 6T134 67T72 166T49 304Q49 382 72 441T135 540T229 601T346 622Q409 622 463 602T557 541T620 441T643 304ZM534 304Q534 416
483 474T346 533Q262 533 211 474T159 304Q159 192 210 133T346 74Q432 74 483 133T534 304ZM311 735Q311 711 295 694T252 677Q226 677 210 694T194 735Q194 758 210 775T252 792Q278 792 294 775T311 735ZM496 735Q496 711 480 694T437 677Q411 677 395 694T378
735Q378 758 394 775T437 792Q463 792 479 775T496 735Z" />
<glyph unicode="&#xd7;" glyph-name="multiply" horiz-adv-x="497" d="M313 288L447 142Q441 122 427 109T393 95Q383 95 373 100T356 114L249 234L108 90Q88 96 71 109T53 142Q53 160 74 179L189 293L53 437Q58 454 72 470T105 486Q116 486 125 481T140 468L253
345L388 486Q405 481 420 468T436 434Q436 415 416 397L313 288Z" />
<glyph unicode="&#xd8;" glyph-name="Oslash" horiz-adv-x="693" d="M643 304Q643 226 621 167T558 67T464 7T346 -14Q237 -14 159 46L100 -17Q72 -11 59 2T45 32Q45 46 52 57T76 84L101 110Q76 148 63 196T49 304Q49 382 72 441T135 540T229 601T346 622Q397
622 443 608T527 564L583 626Q607 620 622 607T638 578Q638 567 631 555T608 526L586 503Q613 464 628 415T643 304ZM536 304Q536 339 530 369T512 426L227 116Q273 74 346 74Q432 74 484 133T536 304ZM157 304Q157 234 178 185L461 494Q413 533 346 533Q262 533
210 474T157 304Z" />
<glyph unicode="&#xd9;" glyph-name="Ugrave" horiz-adv-x="653" d="M572 213Q572 162 556 120T508 48T431 2T326 -14Q268 -14 223 2T146 48T98 120T81 213V607Q88 609 102 611T131 614Q160 614 174 603T188 564V219Q188 148 227 111T326 74Q356 74 381 83T425
111T454 156T465 219V607Q472 609 486 611T515 614Q544 614 558 603T572 564V213ZM186 760Q185 764 185 768T185 775Q185 797 197 810T230 823Q256 823 276 800L361 703Q359 682 347 671T318 660Q304 660 295 665T275 679L186 760Z" />
<glyph unicode="&#xda;" glyph-name="Uacute" horiz-adv-x="653" d="M572 213Q572 162 556 120T508 48T431 2T326 -14Q268 -14 223 2T146 48T98 120T81 213V607Q88 609 102 611T131 614Q160 614 174 603T188 564V219Q188 148 227 111T326 74Q356 74 381 83T425
111T454 156T465 219V607Q472 609 486 611T515 614Q544 614 558 603T572 564V213ZM403 827Q430 826 445 813T460 782Q460 766 453 756T429 731L340 660Q315 661 302 671T288 698Q288 717 305 733L403 827Z" />
<glyph unicode="&#xdb;" glyph-name="Ucircumflex" horiz-adv-x="653" d="M572 213Q572 162 556 120T508 48T431 2T326 -14Q268 -14 223 2T146 48T98 120T81 213V607Q88 609 102 611T131 614Q160 614 174 603T188 564V219Q188 148 227 111T326 74Q356 74 381 83T425
111T454 156T465 219V607Q472 609 486 611T515 614Q544 614 558 603T572 564V213ZM331 746Q312 727 289 704T239 656Q218 658 204 669T190 697Q190 712 198 722T222 747L273 796Q303 823 332 823Q351 823 365 816T394 793L475 703Q475 682 464 671T432 659Q418
659 407 666T378 693L331 746Z" />
<glyph unicode="&#xdc;" glyph-name="Udieresis" horiz-adv-x="653" d="M572 213Q572 162 556 120T508 48T431 2T326 -14Q268 -14 223 2T146 48T98 120T81 213V607Q88 609 102 611T131 614Q160 614 174 603T188 564V219Q188 148 227 111T326 74Q356 74 381 83T425
111T454 156T465 219V607Q472 609 486 611T515 614Q544 614 558 603T572 564V213ZM291 735Q291 711 275 694T232 677Q206 677 190 694T174 735Q174 758 190 775T232 792Q258 792 274 775T291 735ZM476 735Q476 711 460 694T417 677Q391 677 375 694T358 735Q358
758 374 775T417 792Q443 792 459 775T476 735Z" />
<glyph unicode="&#xdd;" glyph-name="Yacute" horiz-adv-x="557" d="M534 568Q534 546 484 457T337 219V2Q329 -1 316 -3T288 -6Q257 -6 244 5T231 43V218Q204 258 174 304T115 398T61 491T17 576Q23 590 37 601T74 613Q98 613 112 602T141 563Q153 542 172 507T212
435T252 364T282 312H286Q308 352 328 388T366 460T402 530T438 602Q447 607 459 610T483 613Q506 613 520 601T534 568ZM347 827Q374 826 389 813T404 782Q404 766 397 756T373 731L284 660Q259 661 246 671T232 698Q232 717 249 733L347 827Z" />
<glyph unicode="&#xde;" glyph-name="Thorn" horiz-adv-x="576" d="M81 607Q88 609 102 611T130 614Q159 614 173 603T188 565V504H300Q416 504 473 451T530 306Q530 216 473 162T300 107H188V1Q181 -1 167 -3T139 -6Q108 -6 95 5T81 43V607ZM188 195H281Q348
195 385 222T423 306Q423 363 386 389T281 416H188V195Z" />
<glyph unicode="&#xdf;" glyph-name="germandbls" horiz-adv-x="590" d="M178 -1Q171 -3 158 -5T131 -8Q102 -8 88 3T73 41V469Q73 519 89 557T133 620T200 659T283 672Q329 672 368 659T435 619T480 553T496 462Q496 423 461 409L420 391Q397 380 388 369T378
340Q378 323 388 310T426 281Q457 264 480 248T519 214T543 175T551 125Q551 54 503 19T380 -17Q321 -17 288 1T254 49Q254 64 261 77T282 96Q299 83 321 75T372 66Q405 66 425 82T445 125Q445 150 430 167T373 207Q322 233 297 264T271 341Q271 383 293 410T358
455L391 469Q391 520 361 552T283 585Q240 585 209 557T178 468V-1Z" />
<glyph unicode="&#xe0;" glyph-name="agrave" horiz-adv-x="511" d="M245 67Q280 67 306 74T343 89V216L234 205Q188 200 165 185T142 137Q142 104 167 86T245 67ZM243 482Q336 482 391 442T446 314V81Q446 58 436 46T407 22Q381 7 340 -4T245 -15Q148 -15 94
23T39 135Q39 201 81 236T204 279L343 293V315Q343 359 315 379T235 399Q195 399 158 388T92 363Q82 371 75 382T68 408Q68 425 76 436T103 455Q131 469 167 475T243 482ZM117 637Q115 647 115 653Q115 675 128 688T162 701Q189 701 208 678L298 566Q296 544 284
533T254 521Q240 521 231 526T212 540L117 637Z" />
<glyph unicode="&#xe1;" glyph-name="aacute" horiz-adv-x="511" d="M245 67Q280 67 306 74T343 89V216L234 205Q188 200 165 185T142 137Q142 104 167 86T245 67ZM243 482Q336 482 391 442T446 314V81Q446 58 436 46T407 22Q381 7 340 -4T245 -15Q148 -15 94
23T39 135Q39 201 81 236T204 279L343 293V315Q343 359 315 379T235 399Q195 399 158 388T92 363Q82 371 75 382T68 408Q68 425 76 436T103 455Q131 469 167 475T243 482ZM316 705Q346 704 363 690T380 658Q380 641 373 631T349 605L257 519Q231 519 216 532T201
562Q201 572 205 580T218 596L316 705Z" />
<glyph unicode="&#xe2;" glyph-name="acircumflex" horiz-adv-x="511" d="M245 67Q280 67 306 74T343 89V216L234 205Q188 200 165 185T142 137Q142 104 167 86T245 67ZM243 482Q336 482 391 442T446 314V81Q446 58 436 46T407 22Q381 7 340 -4T245 -15Q148 -15
94 23T39 135Q39 201 81 236T204 279L343 293V315Q343 359 315 379T235 399Q195 399 158 388T92 363Q82 371 75 382T68 408Q68 425 76 436T103 455Q131 469 167 475T243 482ZM251 620Q227 592 206 570T165 524Q141 525 126 536T111 565Q111 578 118 588T139 612L192
670Q207 683 220 690T251 698Q270 698 283 691T313 665L393 569Q393 552 383 539T352 526Q338 526 329 533T309 551L251 620Z" />
<glyph unicode="&#xe3;" glyph-name="atilde" horiz-adv-x="511" d="M245 67Q280 67 306 74T343 89V216L234 205Q188 200 165 185T142 137Q142 104 167 86T245 67ZM243 482Q336 482 391 442T446 314V81Q446 58 436 46T407 22Q381 7 340 -4T245 -15Q148 -15 94
23T39 135Q39 201 81 236T204 279L343 293V315Q343 359 315 379T235 399Q195 399 158 388T92 363Q82 371 75 382T68 408Q68 425 76 436T103 455Q131 469 167 475T243 482ZM172 669Q193 669 211 664T245 653T276 641T304 636Q323 636 332 647T346 673H352Q374 673
390 661T406 624Q406 591 384 573T327 555Q305 555 286 560T250 571T219 583T192 588Q173 588 164 577T151 550H145Q123 550 107 562T90 600Q90 633 115 651T172 669Z" />
<glyph unicode="&#xe4;" glyph-name="adieresis" horiz-adv-x="511" d="M245 67Q280 67 306 74T343 89V216L234 205Q188 200 165 185T142 137Q142 104 167 86T245 67ZM243 482Q336 482 391 442T446 314V81Q446 58 436 46T407 22Q381 7 340 -4T245 -15Q148 -15
94 23T39 135Q39 201 81 236T204 279L343 293V315Q343 359 315 379T235 399Q195 399 158 388T92 363Q82 371 75 382T68 408Q68 425 76 436T103 455Q131 469 167 475T243 482ZM222 609Q222 585 206 568T163 551Q137 551 121 568T105 609Q105 632 121 649T163 666Q189
666 205 649T222 609ZM407 609Q407 585 391 568T348 551Q322 551 306 568T289 609Q289 632 305 649T348 666Q374 666 390 649T407 609Z" />
<glyph unicode="&#xe5;" glyph-name="aring" horiz-adv-x="511" d="M245 67Q280 67 306 74T343 89V216L234 205Q188 200 165 185T142 137Q142 104 167 86T245 67ZM243 482Q336 482 391 442T446 314V81Q446 58 436 46T407 22Q381 7 340 -4T245 -15Q148 -15 94 23T39
135Q39 201 81 236T204 279L343 293V315Q343 359 315 379T235 399Q195 399 158 388T92 363Q82 371 75 382T68 408Q68 425 76 436T103 455Q131 469 167 475T243 482ZM144 620Q144 662 173 690T256 718Q310 718 339 690T369 620Q369 578 340 550T256 522Q203 522
174 550T144 620ZM214 620Q214 600 226 589T256 577Q275 577 287 588T300 620Q300 640 288 651T256 663Q238 663 226 652T214 620Z" />
<glyph unicode="&#xe6;" glyph-name="ae" horiz-adv-x="816" d="M243 482Q300 482 340 464T402 410Q462 482 563 482Q611 482 650 467T718 424T763 358T779 275Q779 250 767 238T731 223L439 181Q453 124 493 97T597 69Q639 69 674 82T730 110Q758 94 758 65Q758
48 745 34T710 9T657 -8T591 -14Q481 -14 419 48Q414 37 406 29T388 16Q363 3 331 -6T245 -15Q148 -15 94 23T39 135Q39 201 81 236T204 279L343 293V315Q343 359 315 379T235 399Q195 399 158 388T92 363Q82 371 75 382T68 408Q68 425 76 436T103 455Q131 469
167 475T243 482ZM245 67Q280 67 306 74T343 89V216L234 205Q188 200 165 185T142 137Q142 104 167 86T245 67ZM563 401Q507 401 472 364T433 258L679 293Q675 338 646 369T563 401Z" />
<glyph unicode="&#xe7;" glyph-name="ccedilla" horiz-adv-x="481" d="M299 397Q267 397 240 387T194 355T163 304T151 233Q151 154 192 113T299 71Q337 71 364 81T411 105Q424 97 432 86T440 59Q440 34 413 15T339 -11Q361 -42 361 -85Q361 -134 331 -163T249
-193Q220 -193 203 -181T186 -145Q186 -139 187 -132T191 -119H205Q240 -119 255 -104T271 -63Q271 -52 267 -39T255 -12Q208 -7 169 10T102 58T59 132T44 233Q44 295 63 342T116 420T195 466T290 482Q323 482 349 476T395 460T424 436T435 407Q435 393 428 382T409
364Q388 377 363 387T299 397Z" />
<glyph unicode="&#xe8;" glyph-name="egrave" horiz-adv-x="527" d="M150 181Q164 124 204 97T308 69Q350 69 385 82T441 110Q469 94 469 65Q469 48 456 34T421 9T368 -8T302 -14Q244 -14 197 2T115 50T63 129T44 238Q44 298 62 343T111 419T184 466T274 482Q322
482 361 467T429 424T473 358T489 275Q489 250 477 239T442 223L150 181ZM274 401Q219 401 183 364T144 258L390 293Q386 338 357 369T274 401ZM134 637Q132 647 132 653Q132 675 145 688T179 701Q206 701 225 678L315 566Q313 544 301 533T271 521Q257 521 248
526T229 540L134 637Z" />
<glyph unicode="&#xe9;" glyph-name="eacute" horiz-adv-x="527" d="M150 181Q164 124 204 97T308 69Q350 69 385 82T441 110Q469 94 469 65Q469 48 456 34T421 9T368 -8T302 -14Q244 -14 197 2T115 50T63 129T44 238Q44 298 62 343T111 419T184 466T274 482Q322
482 361 467T429 424T473 358T489 275Q489 250 477 239T442 223L150 181ZM274 401Q219 401 183 364T144 258L390 293Q386 338 357 369T274 401ZM348 705Q378 704 395 690T412 658Q412 641 405 631T381 605L289 519Q263 519 248 532T233 562Q233 572 237 580T250
596L348 705Z" />
<glyph unicode="&#xea;" glyph-name="ecircumflex" horiz-adv-x="527" d="M150 181Q164 124 204 97T308 69Q350 69 385 82T441 110Q469 94 469 65Q469 48 456 34T421 9T368 -8T302 -14Q244 -14 197 2T115 50T63 129T44 238Q44 298 62 343T111 419T184 466T274
482Q322 482 361 467T429 424T473 358T489 275Q489 250 477 239T442 223L150 181ZM274 401Q219 401 183 364T144 258L390 293Q386 338 357 369T274 401ZM275 620Q251 592 230 570T189 524Q165 525 150 536T135 565Q135 578 142 588T163 612L216 670Q231 683 244
690T275 698Q294 698 307 691T337 665L417 569Q417 552 407 539T376 526Q362 526 353 533T333 551L275 620Z" />
<glyph unicode="&#xeb;" glyph-name="edieresis" horiz-adv-x="527" d="M150 181Q164 124 204 97T308 69Q350 69 385 82T441 110Q469 94 469 65Q469 48 456 34T421 9T368 -8T302 -14Q244 -14 197 2T115 50T63 129T44 238Q44 298 62 343T111 419T184 466T274 482Q322
482 361 467T429 424T473 358T489 275Q489 250 477 239T442 223L150 181ZM274 401Q219 401 183 364T144 258L390 293Q386 338 357 369T274 401ZM236 609Q236 585 220 568T177 551Q151 551 135 568T119 609Q119 632 135 649T177 666Q203 666 219 649T236 609ZM421
609Q421 585 405 568T362 551Q336 551 320 568T303 609Q303 632 319 649T362 666Q388 666 404 649T421 609Z" />
<glyph unicode="&#xec;" glyph-name="igrave" horiz-adv-x="252" d="M178 -1Q172 -3 160 -5T132 -8Q103 -8 88 3T73 41V464Q80 466 93 468T120 471Q150 471 164 460T178 422V-1ZM-13 637Q-15 647 -15 653Q-15 675 -2 688T32 701Q59 701 78 678L168 566Q166 544
154 533T124 521Q110 521 101 526T82 540L-13 637Z" />
<glyph unicode="&#xed;" glyph-name="iacute" horiz-adv-x="252" d="M178 -1Q172 -3 160 -5T132 -8Q103 -8 88 3T73 41V464Q80 466 93 468T120 471Q150 471 164 460T178 422V-1ZM199 705Q229 704 246 690T263 658Q263 641 256 631T232 605L140 519Q114 519 99
532T84 562Q84 572 88 580T101 596L199 705Z" />
<glyph unicode="&#xee;" glyph-name="icircumflex" horiz-adv-x="252" d="M178 -1Q172 -3 160 -5T132 -8Q103 -8 88 3T73 41V464Q80 466 93 468T120 471Q150 471 164 460T178 422V-1ZM128 620Q104 592 83 570T42 524Q18 525 3 536T-12 565Q-12 578 -5 588T16 612L69
670Q84 683 97 690T128 698Q147 698 160 691T190 665L270 569Q270 552 260 539T229 526Q215 526 206 533T186 551L128 620Z" />
<glyph unicode="&#xef;" glyph-name="idieresis" horiz-adv-x="252" d="M178 -1Q172 -3 160 -5T132 -8Q103 -8 88 3T73 41V464Q80 466 93 468T120 471Q150 471 164 460T178 422V-1ZM92 609Q92 585 76 568T33 551Q7 551 -9 568T-25 609Q-25 632 -9 649T33 666Q59
666 75 649T92 609ZM277 609Q277 585 261 568T218 551Q192 551 176 568T159 609Q159 632 175 649T218 666Q244 666 260 649T277 609Z" />
<glyph unicode="&#xf0;" glyph-name="eth" horiz-adv-x="550" d="M390 553Q414 524 435 490T471 416T496 334T505 245Q505 121 447 54T277 -14Q224 -14 181 2T108 48T61 120T44 217Q44 275 62 317T111 387T180 428T261 442Q293 442 319 435T367 413Q352 443 335
468T295 517L170 472Q159 480 151 492T143 520Q143 543 170 554L225 575Q203 588 180 597T133 614Q134 640 147 656T186 673Q218 673 254 657T327 613L430 654Q441 646 449 635T458 606Q458 589 451 582T430 569L390 553ZM398 222Q398 244 397 263T393 301Q372
328 343 343T280 359Q215 359 183 321T151 217Q151 150 184 111T278 71Q338 71 368 112T398 222Z" />
<glyph unicode="&#xf1;" glyph-name="ntilde" horiz-adv-x="566" d="M392 303Q392 352 365 375T290 398Q255 398 228 389T180 369V2Q173 -1 161 -3T133 -6Q104 -6 90 5T76 42V372Q76 395 85 409T115 437Q143 454 188 468T290 482Q387 482 442 439T497 307V2Q490
-1 477 -3T449 -6Q420 -6 406 5T392 42V303ZM204 669Q225 669 243 664T277 653T308 641T336 636Q355 636 364 647T378 673H384Q406 673 422 661T438 624Q438 591 416 573T359 555Q337 555 318 560T282 571T251 583T224 588Q205 588 196 577T183 550H177Q155 550
139 562T122 600Q122 633 147 651T204 669Z" />
<glyph unicode="&#xf2;" glyph-name="ograve" horiz-adv-x="562" d="M518 234Q518 177 501 131T454 53T379 4T281 -14Q227 -14 183 3T109 53T61 131T44 234Q44 291 61 337T109 415T184 464T281 482Q334 482 378 465T453 415T501 337T518 234ZM281 398Q221 398
186 355T151 234Q151 156 185 114T281 71Q343 71 377 113T411 234Q411 311 377 354T281 398ZM152 637Q150 647 150 653Q150 675 163 688T197 701Q224 701 243 678L333 566Q331 544 319 533T289 521Q275 521 266 526T247 540L152 637Z" />
<glyph unicode="&#xf3;" glyph-name="oacute" horiz-adv-x="562" d="M518 234Q518 177 501 131T454 53T379 4T281 -14Q227 -14 183 3T109 53T61 131T44 234Q44 291 61 337T109 415T184 464T281 482Q334 482 378 465T453 415T501 337T518 234ZM281 398Q221 398
186 355T151 234Q151 156 185 114T281 71Q343 71 377 113T411 234Q411 311 377 354T281 398ZM356 705Q386 704 403 690T420 658Q420 641 413 631T389 605L297 519Q271 519 256 532T241 562Q241 572 245 580T258 596L356 705Z" />
<glyph unicode="&#xf4;" glyph-name="ocircumflex" horiz-adv-x="562" d="M518 234Q518 177 501 131T454 53T379 4T281 -14Q227 -14 183 3T109 53T61 131T44 234Q44 291 61 337T109 415T184 464T281 482Q334 482 378 465T453 415T501 337T518 234ZM281 398Q221
398 186 355T151 234Q151 156 185 114T281 71Q343 71 377 113T411 234Q411 311 377 354T281 398ZM281 620Q257 592 236 570T195 524Q171 525 156 536T141 565Q141 578 148 588T169 612L222 670Q237 683 250 690T281 698Q300 698 313 691T343 665L423 569Q423 552
413 539T382 526Q368 526 359 533T339 551L281 620Z" />
<glyph unicode="&#xf5;" glyph-name="otilde" horiz-adv-x="562" d="M518 234Q518 177 501 131T454 53T379 4T281 -14Q227 -14 183 3T109 53T61 131T44 234Q44 291 61 337T109 415T184 464T281 482Q334 482 378 465T453 415T501 337T518 234ZM281 398Q221 398
186 355T151 234Q151 156 185 114T281 71Q343 71 377 113T411 234Q411 311 377 354T281 398ZM207 669Q228 669 246 664T280 653T311 641T339 636Q358 636 367 647T381 673H387Q409 673 425 661T441 624Q441 591 419 573T362 555Q340 555 321 560T285 571T254 583T227
588Q208 588 199 577T186 550H180Q158 550 142 562T125 600Q125 633 150 651T207 669Z" />
<glyph unicode="&#xf6;" glyph-name="odieresis" horiz-adv-x="562" d="M518 234Q518 177 501 131T454 53T379 4T281 -14Q227 -14 183 3T109 53T61 131T44 234Q44 291 61 337T109 415T184 464T281 482Q334 482 378 465T453 415T501 337T518 234ZM281 398Q221 398
186 355T151 234Q151 156 185 114T281 71Q343 71 377 113T411 234Q411 311 377 354T281 398ZM247 609Q247 585 231 568T188 551Q162 551 146 568T130 609Q130 632 146 649T188 666Q214 666 230 649T247 609ZM432 609Q432 585 416 568T373 551Q347 551 331 568T314
609Q314 632 330 649T373 666Q399 666 415 649T432 609Z" />
<glyph unicode="&#xf7;" glyph-name="divide" horiz-adv-x="523" d="M55 254Q51 262 48 272T45 295Q45 317 56 328T87 339H468Q472 331 475 321T478 298Q478 275 467 265T435 254H55ZM203 131Q203 157 219 174T264 191Q291 191 307 174T323 131Q323 105 307 88T264
71Q236 71 220 88T203 131ZM203 459Q203 485 219 502T264 519Q291 519 307 502T323 459Q323 433 307 416T264 399Q236 399 220 416T203 459Z" />
<glyph unicode="&#xf8;" glyph-name="oslash" horiz-adv-x="562" d="M518 234Q518 177 501 131T454 53T379 4T281 -14Q222 -14 173 8L126 -61Q104 -61 88 -50T72 -22Q72 -13 79 -3L114 47Q80 79 62 126T44 234Q44 291 61 337T109 415T184 464T281 482Q339 482
388 460L435 530Q455 530 471 519T488 490Q488 482 482 473L446 421Q481 388 499 341T518 234ZM415 234Q415 266 408 292T389 339L223 82Q248 70 281 70Q343 70 379 112T415 234ZM281 398Q221 398 184 355T147 234Q147 171 172 129L339 385Q311 398 281 398Z" />
<glyph unicode="&#xf9;" glyph-name="ugrave" horiz-adv-x="559" d="M69 467Q76 469 89 471T117 474Q146 474 159 463T173 425V178Q173 120 203 96T288 71Q323 71 347 78T385 93V467Q393 469 405 471T433 474Q462 474 476 463T490 425V88Q490 66 483 52T455 25Q429
10 387 -2T287 -14Q184 -14 127 31T69 176V467ZM137 637Q135 647 135 653Q135 675 148 688T182 701Q209 701 228 678L318 566Q316 544 304 533T274 521Q260 521 251 526T232 540L137 637Z" />
<glyph unicode="&#xfa;" glyph-name="uacute" horiz-adv-x="559" d="M69 467Q76 469 89 471T117 474Q146 474 159 463T173 425V178Q173 120 203 96T288 71Q323 71 347 78T385 93V467Q393 469 405 471T433 474Q462 474 476 463T490 425V88Q490 66 483 52T455 25Q429
10 387 -2T287 -14Q184 -14 127 31T69 176V467ZM355 705Q385 704 402 690T419 658Q419 641 412 631T388 605L296 519Q270 519 255 532T240 562Q240 572 244 580T257 596L355 705Z" />
<glyph unicode="&#xfb;" glyph-name="ucircumflex" horiz-adv-x="559" d="M69 467Q76 469 89 471T117 474Q146 474 159 463T173 425V178Q173 120 203 96T288 71Q323 71 347 78T385 93V467Q393 469 405 471T433 474Q462 474 476 463T490 425V88Q490 66 483 52T455
25Q429 10 387 -2T287 -14Q184 -14 127 31T69 176V467ZM281 620Q257 592 236 570T195 524Q171 525 156 536T141 565Q141 578 148 588T169 612L222 670Q237 683 250 690T281 698Q300 698 313 691T343 665L423 569Q423 552 413 539T382 526Q368 526 359 533T339 551L281
620Z" />
<glyph unicode="&#xfc;" glyph-name="udieresis" horiz-adv-x="559" d="M69 467Q76 469 89 471T117 474Q146 474 159 463T173 425V178Q173 120 203 96T288 71Q323 71 347 78T385 93V467Q393 469 405 471T433 474Q462 474 476 463T490 425V88Q490 66 483 52T455
25Q429 10 387 -2T287 -14Q184 -14 127 31T69 176V467ZM243 609Q243 585 227 568T184 551Q158 551 142 568T126 609Q126 632 142 649T184 666Q210 666 226 649T243 609ZM428 609Q428 585 412 568T369 551Q343 551 327 568T310 609Q310 632 326 649T369 666Q395
666 411 649T428 609Z" />
<glyph unicode="&#xfd;" glyph-name="yacute" horiz-adv-x="506" d="M158 109Q133 158 97 248T27 452Q36 463 51 470T83 478Q105 478 119 468T142 431Q169 350 198 272T262 109H266Q281 141 296 184T327 275T355 372T378 467Q388 472 398 475T423 478Q445 478
460 468T475 435Q475 409 462 356T426 238T376 107T320 -10Q270 -98 230 -144T153 -190Q125 -190 109 -175T88 -136Q104 -122 123 -102T161 -59T197 -12T226 36Q209 41 193 55T158 109ZM322 705Q352 704 369 690T386 658Q386 641 379 631T355 605L263 519Q237 519
222 532T207 562Q207 572 211 580T224 596L322 705Z" />
<glyph unicode="&#xfe;" glyph-name="thorn" horiz-adv-x="562" d="M283 -14Q251 -14 223 -8T175 9V-176Q168 -179 156 -181T128 -184Q99 -184 85 -173T71 -135V650Q77 652 90 654T118 657Q148 657 161 646T175 609V461Q195 469 222 475T281 482Q329 482 371 468T446
423T496 347T515 236Q515 173 498 127T450 49T377 2T283 -14ZM267 71Q332 71 370 110T408 236Q408 280 397 311T367 361T323 389T269 398Q241 398 218 392T175 373V98Q192 86 215 79T267 71Z" />
<glyph unicode="&#xff;" glyph-name="ydieresis" horiz-adv-x="506" d="M158 109Q133 158 97 248T27 452Q36 463 51 470T83 478Q105 478 119 468T142 431Q169 350 198 272T262 109H266Q281 141 296 184T327 275T355 372T378 467Q388 472 398 475T423 478Q445 478
460 468T475 435Q475 409 462 356T426 238T376 107T320 -10Q270 -98 230 -144T153 -190Q125 -190 109 -175T88 -136Q104 -122 123 -102T161 -59T197 -12T226 36Q209 41 193 55T158 109ZM219 609Q219 585 203 568T160 551Q134 551 118 568T102 609Q102 632 118 649T160
666Q186 666 202 649T219 609ZM404 609Q404 585 388 568T345 551Q319 551 303 568T286 609Q286 632 302 649T345 666Q371 666 387 649T404 609Z" />
<glyph unicode="&#x2013;" glyph-name="endash" horiz-adv-x="536" d="M54 216Q51 224 48 234T45 258Q45 302 87 302H482Q485 294 488 284T491 261Q491 216 450 216H54Z" />
<glyph unicode="&#x2014;" glyph-name="emdash" horiz-adv-x="769" d="M58 219Q53 227 50 237T47 260Q47 283 58 293T90 304H712Q716 296 719 286T722 263Q722 241 711 230T680 219H58Z" />
<glyph unicode="&#x2018;" glyph-name="quoteleft" horiz-adv-x="155" d="M57 601Q65 616 74 622T101 629Q112 629 123 626T142 617Q139 596 136 570T129 515T122 458T118 407Q107 402 95 399T69 395Q47 395 32 405T17 441Q17 457 21 479T31 525T44 568T57 601Z" />
<glyph unicode="&#x2019;" glyph-name="quoteright" horiz-adv-x="153" d="M99 424Q91 409 81 402T55 395Q43 395 33 399T13 408Q16 430 19 456T27 511T33 566T38 618Q48 622 60 625T87 628Q109 628 123 618T138 582Q138 566 134 544T125 500T112 457T99 424Z" />
<glyph unicode="&#x201a;" glyph-name="quotesinglbase" horiz-adv-x="158" d="M99 -113Q91 -128 81 -135T55 -142Q43 -142 33 -138T13 -129Q16 -107 19 -81T27 -26T33 29T38 81Q48 85 60 88T87 91Q109 91 123 81T138 45Q138 29 134 7T125 -37T112 -80T99 -113Z" />
<glyph unicode="&#x201c;" glyph-name="quotedblleft" horiz-adv-x="306" d="M210 601Q224 629 253 629Q275 629 292 618Q289 596 285 569T278 514T272 457T268 406Q257 401 246 398T220 395Q198 395 185 405T172 441Q172 457 175 479T185 525T197 568T210 601ZM56
601Q64 616 72 622T98 629Q120 629 137 618Q134 597 131 570T123 514T116 457T112 406Q101 401 90 398T66 395Q43 395 30 405T17 441Q17 457 20 479T30 525T43 568T56 601Z" />
<glyph unicode="&#x201d;" glyph-name="quotedblright" horiz-adv-x="306" d="M94 424Q86 409 78 402T53 395Q41 395 32 398T13 407Q16 428 19 455T27 510T33 567T38 618Q48 623 59 625T84 628Q107 628 120 618T133 582Q133 566 130 544T121 500T108 457T94 424ZM250
424Q242 409 233 402T207 395Q186 395 169 407Q172 429 175 456T182 511T188 567T193 618Q204 623 215 625T240 628Q262 628 275 618T288 582Q288 566 285 544T275 500T263 457T250 424Z" />
<glyph unicode="&#x201e;" glyph-name="quotedblbase" horiz-adv-x="307" d="M94 -113Q86 -128 78 -135T53 -142Q41 -142 32 -139T13 -130Q16 -109 19 -82T27 -27T33 30T38 81Q48 86 59 88T84 91Q107 91 120 81T133 45Q133 29 130 7T121 -37T108 -80T94 -113ZM250
-113Q242 -128 233 -135T207 -142Q186 -142 169 -130Q172 -108 175 -81T182 -26T188 30T193 81Q204 86 215 88T240 91Q262 91 275 81T288 45Q288 29 285 7T275 -37T263 -80T250 -113Z" />
<glyph unicode="&#x2022;" glyph-name="bullet" horiz-adv-x="277" d="M45 282Q45 320 70 347T138 375Q180 375 205 348T231 282Q231 244 206 217T138 190Q96 190 71 217T45 282Z" />
<glyph unicode="&#x2039;" glyph-name="guilsinglleft" horiz-adv-x="292" d="M254 85Q254 66 242 51T205 36Q190 36 177 45T152 67L45 183Q33 200 33 224Q33 244 38 255T52 274L197 423Q222 417 234 405T247 376Q247 361 240 350T215 320L120 224L254 85Z" />
<glyph unicode="&#x203a;" glyph-name="guilsinglright" horiz-adv-x="292" d="M38 373Q38 392 50 407T86 423Q102 423 115 414T139 392L247 276Q252 268 255 258T258 235Q258 215 253 204T239 184L93 36Q69 42 57 54T45 83Q45 98 51 109T77 139L171 235L38 373Z" />
</font>
</defs>
</svg>
